<svg xmlns="http://www.w3.org/2000/svg" width="169" height="48" viewBox="0 0 169 48" fill="none">
    <g clip-path="url(#clip0_38_4803)">
        <path
            d="M144.958 22.585C147.078 22.585 147.896 23.8826 148.01 25.0124C148.011 25.0295 148.01 25.0466 148.004 25.0629C147.999 25.0791 147.99 25.094 147.978 25.1067C147.967 25.1193 147.953 25.1294 147.937 25.1363C147.921 25.1431 147.904 25.1466 147.887 25.1466H142.064C142.046 25.1466 142.029 25.1429 142.013 25.1357C141.997 25.1285 141.983 25.1181 141.972 25.105C141.96 25.092 141.951 25.0766 141.946 25.06C141.941 25.0434 141.94 25.0258 141.942 25.0086C142.099 23.9046 143.077 22.585 144.958 22.585ZM148.15 29.7685C148.111 29.7683 148.073 29.7773 148.038 29.7948C148.004 29.8123 147.974 29.8377 147.951 29.8691C147.426 30.6089 146.571 31.065 145.295 31.065C143.537 31.065 142.01 29.9093 141.845 28.2716C141.844 28.2546 141.845 28.2375 141.851 28.2213C141.856 28.2052 141.865 28.1903 141.876 28.1777C141.888 28.165 141.902 28.1549 141.917 28.148C141.933 28.1411 141.95 28.1375 141.967 28.1374H152.431C152.46 28.0454 152.522 27.344 152.522 26.7028C152.522 21.8232 149.612 18.9253 144.896 18.9253C140.946 18.9253 137.302 22.0359 137.302 26.9165C137.302 32.0109 141.038 34.9998 145.234 34.9998C149.026 34.9998 151.428 32.8781 152.207 30.3137C152.212 30.2984 152.238 30.2026 152.267 30.0627C152.274 30.0271 152.273 29.9903 152.265 29.955C152.256 29.9196 152.24 29.8867 152.217 29.8585C152.194 29.8303 152.165 29.8076 152.132 29.792C152.099 29.7765 152.063 29.7684 152.027 29.7685H148.15ZM157.402 26.8389L152.441 19.7667C152.415 19.73 152.4 19.6869 152.398 19.6423C152.395 19.5976 152.404 19.553 152.425 19.5134C152.446 19.4737 152.477 19.4405 152.515 19.4174C152.554 19.3943 152.598 19.3822 152.642 19.3824H157.52C157.603 19.3824 157.68 19.4236 157.726 19.4926L160.275 23.3737C160.323 23.4475 160.432 23.4465 160.48 23.3718L162.971 19.4955C162.993 19.4608 163.023 19.4323 163.059 19.4125C163.095 19.3928 163.136 19.3824 163.177 19.3824H167.775C167.974 19.3824 168.09 19.6057 167.976 19.7676L163.081 26.654C163.052 26.6949 163.036 26.7439 163.036 26.7942C163.036 26.8445 163.051 26.8936 163.08 26.9348C164.682 29.2155 166.514 31.8508 168.157 34.1575C168.272 34.3194 168.157 34.5418 167.958 34.5418H163.114C163.073 34.5419 163.033 34.532 162.997 34.5129C162.962 34.4939 162.931 34.4662 162.909 34.4325L160.266 30.4249C160.254 30.4081 160.239 30.3943 160.221 30.3848C160.204 30.3753 160.184 30.3703 160.164 30.3703C160.143 30.3703 160.123 30.3753 160.106 30.3848C160.088 30.3943 160.073 30.4081 160.061 30.4249C159.27 31.6017 158.235 33.2404 157.45 34.4325C157.428 34.4663 157.397 34.494 157.361 34.5131C157.326 34.5321 157.286 34.542 157.245 34.5418H152.73C152.685 34.542 152.641 34.53 152.603 34.5071C152.565 34.4842 152.533 34.4512 152.513 34.4117C152.492 34.3723 152.482 34.3279 152.485 34.2834C152.488 34.2389 152.503 34.196 152.528 34.1594L157.403 27.1168C157.432 27.076 157.447 27.0276 157.447 26.9779C157.447 26.9282 157.432 26.8797 157.403 26.8389H157.402ZM131.116 34.2983V12.703C131.116 12.5679 131.226 12.4587 131.361 12.4587H135.526C135.661 12.4587 135.771 12.5679 135.771 12.703V34.2983C135.771 34.4325 135.661 34.5418 135.526 34.5418H131.361C131.329 34.5419 131.297 34.5357 131.268 34.5235C131.238 34.5114 131.211 34.4935 131.188 34.4709C131.165 34.4483 131.147 34.4214 131.135 34.3918C131.123 34.3622 131.116 34.3304 131.116 34.2983ZM124.256 34.2983V12.703C124.256 12.5679 124.367 12.4587 124.502 12.4587H128.667C128.802 12.4587 128.911 12.5679 128.911 12.703V34.2983C128.911 34.4325 128.802 34.5418 128.667 34.5418H124.502C124.47 34.5419 124.438 34.5357 124.408 34.5235C124.379 34.5114 124.352 34.4935 124.329 34.4709C124.306 34.4483 124.288 34.4214 124.275 34.3918C124.263 34.3622 124.257 34.3304 124.256 34.2983ZM113.957 30.973C115.825 30.973 117.417 29.5097 117.417 26.9472C117.417 24.3243 115.855 22.9511 113.957 22.9511C111.966 22.9511 110.466 24.3243 110.466 26.9472C110.466 29.4484 112.028 30.974 113.957 30.974V30.973ZM117.448 32.5897C116.774 34.054 115.244 34.9692 113.344 34.9692C108.873 34.9692 105.78 31.5835 105.78 26.9165C105.78 22.4029 108.69 18.9243 113.191 18.9243C115.916 18.9243 117.11 20.4193 117.417 21.1207V19.6258C117.417 19.4916 117.526 19.3824 117.662 19.3824H121.674C121.808 19.3824 121.918 19.4916 121.918 19.6267V34.2983C121.918 34.4325 121.809 34.5418 121.674 34.5418H117.665C117.633 34.5418 117.601 34.5353 117.571 34.5229C117.541 34.5104 117.514 34.4922 117.491 34.4692C117.469 34.4462 117.451 34.4189 117.439 34.3889C117.427 34.3589 117.421 34.3268 117.421 34.2945C117.429 33.7435 117.448 32.4699 117.448 32.5897ZM95.8476 19.5501L98.6372 28.0004C98.6756 28.1154 98.8385 28.1115 98.8711 27.9956L101.254 19.5606C101.269 19.5092 101.3 19.464 101.342 19.4318C101.385 19.3996 101.437 19.3823 101.49 19.3824H105.534C105.7 19.3824 105.818 19.5415 105.769 19.6986L101.205 34.3702C101.189 34.4202 101.158 34.4639 101.116 34.495C101.074 34.526 101.023 34.5428 100.971 34.5427H96.7034C96.6522 34.5426 96.6022 34.5265 96.5607 34.4966C96.5191 34.4667 96.4879 34.4245 96.4715 34.376L93.3378 25.0977C93.2995 24.9865 93.1414 24.9875 93.105 25.0977L90.0288 34.3741C90.0127 34.4228 89.9816 34.4653 89.94 34.4954C89.8983 34.5255 89.8483 34.5417 89.7969 34.5418H85.4376C85.3856 34.5418 85.3349 34.5253 85.2928 34.4946C85.2508 34.464 85.2196 34.4207 85.2038 34.3712L80.58 19.6996C80.5685 19.6629 80.5659 19.6241 80.5722 19.5863C80.5786 19.5485 80.5938 19.5126 80.6165 19.4817C80.6393 19.4509 80.669 19.4258 80.7033 19.4085C80.7376 19.3912 80.7754 19.3823 80.8138 19.3824H85.1338C85.2431 19.3824 85.3398 19.4552 85.3695 19.5606L87.7528 27.9688C87.7854 28.0838 87.9483 28.0876 87.9867 27.9736L90.806 19.5501C90.8223 19.5012 90.8535 19.4587 90.8953 19.4286C90.9371 19.3985 90.9874 19.3823 91.0389 19.3824H95.6147C95.7202 19.3824 95.815 19.4495 95.8476 19.5501ZM79.3169 23.6583C79.3169 23.694 79.3091 23.7292 79.294 23.7615C79.2789 23.7938 79.257 23.8224 79.2297 23.8453C79.2024 23.8682 79.1704 23.8849 79.136 23.8942C79.1015 23.9034 79.0655 23.905 79.0304 23.8989C78.6394 23.8328 78.2434 23.8013 77.8469 23.8049C75.9782 23.8049 74.2945 24.9032 74.2945 27.9228V34.2983C74.2945 34.4325 74.1852 34.5418 74.0501 34.5418H69.8853C69.8532 34.5419 69.8214 34.5357 69.7917 34.5235C69.762 34.5114 69.735 34.4935 69.7122 34.4709C69.6895 34.4483 69.6714 34.4214 69.659 34.3918C69.6466 34.3622 69.6401 34.3304 69.64 34.2983V19.6267C69.64 19.4926 69.7492 19.3824 69.8853 19.3824H73.8968C74.0319 19.3824 74.1411 19.4916 74.1411 19.6267V21.4264C74.9375 19.7178 76.8675 19.23 78.0922 19.23C78.464 19.23 78.8358 19.2703 79.1262 19.3335C79.2383 19.3584 79.3169 19.4581 79.3169 19.5721V23.6583ZM62.6885 34.2983V19.6267C62.6885 19.4926 62.7987 19.3824 62.9338 19.3824H67.0986C67.2337 19.3824 67.3439 19.4916 67.3439 19.6267V34.2983C67.3439 34.4325 67.2337 34.5418 67.0986 34.5418H62.9338C62.9017 34.5419 62.8699 34.5357 62.8402 34.5235C62.8105 34.5114 62.7835 34.4935 62.7607 34.4709C62.7379 34.4483 62.7198 34.4214 62.7074 34.3918C62.695 34.3622 62.6886 34.3304 62.6885 34.2983ZM64.9855 12.0312C66.5169 12.0312 67.7416 13.2512 67.7416 14.7461C67.7416 16.2411 66.5169 17.461 64.9855 17.461C63.5155 17.461 62.2908 16.2411 62.2908 14.7461C62.2908 13.2512 63.5155 12.0312 64.9855 12.0312ZM47.8568 25.757H52.7787C52.863 25.757 52.9224 25.6746 52.8937 25.595L50.4634 18.6129C50.4552 18.5887 50.4396 18.5677 50.4189 18.5528C50.3982 18.5379 50.3733 18.5298 50.3478 18.5297C50.3223 18.5296 50.2974 18.5375 50.2765 18.5522C50.2557 18.5669 50.2399 18.5878 50.2315 18.6119L47.7428 25.595C47.7141 25.6736 47.7735 25.758 47.8578 25.758L47.8568 25.757ZM54.3091 30.1499H46.2642C46.2137 30.1499 46.1645 30.1656 46.1233 30.1948C46.0821 30.224 46.051 30.2652 46.0342 30.3128L44.5871 34.3798C44.5702 34.4275 44.539 34.4688 44.4976 34.498C44.4562 34.5272 44.4068 34.5428 44.3562 34.5427H39.8004C39.7608 34.5429 39.7217 34.5335 39.6865 34.5152C39.6513 34.497 39.6211 34.4704 39.5985 34.4379C39.5758 34.4054 39.5614 34.3678 39.5565 34.3285C39.5517 34.2891 39.5564 34.2492 39.5704 34.2121L47.5626 13.0739C47.5802 13.0274 47.6115 12.9873 47.6525 12.959C47.6934 12.9308 47.742 12.9157 47.7917 12.9158H53.0566C53.1582 12.9158 53.2502 12.979 53.2856 13.0748L61.1878 34.2131C61.2014 34.25 61.2058 34.2898 61.2008 34.3288C61.1957 34.3679 61.1812 34.4052 61.1586 34.4375C61.1361 34.4698 61.106 34.4961 61.071 34.5143C61.036 34.5324 60.9972 34.5419 60.9578 34.5418H56.2171C56.1665 34.5417 56.1171 34.5261 56.0758 34.4969C56.0344 34.4677 56.0031 34.4265 55.9861 34.3788L54.5391 30.3128C54.5221 30.2653 54.491 30.2241 54.4498 30.195C54.4087 30.1658 54.3595 30.1501 54.3091 30.1499Z"
            fill="#BBBCC3" />
        <path fill-rule="evenodd" clip-rule="evenodd"
            d="M33.6709 21.0289C34.267 21.6091 34.6805 22.351 34.8605 23.1631C35.0404 23.9753 34.979 24.8223 34.6839 25.6L32.4347 31.7101C31.8444 33.3143 30.499 34.5553 28.8363 34.8793C28.0046 35.0457 27.1434 34.9829 26.3446 34.6977C25.5459 34.4124 24.8397 33.9154 24.3016 33.2597L10.8145 17.1008C10.781 17.0611 10.7376 17.0308 10.6887 17.0131C10.6398 16.9953 10.5871 16.9908 10.5359 16.9998C10.4846 17.0088 10.4367 17.0311 10.3968 17.0645C10.3569 17.0979 10.3264 17.1411 10.3085 17.19L5.92045 29.0585C5.82941 29.3039 6.0709 29.5415 6.31048 29.4438L11.6952 27.2445C11.9987 27.1214 12.3245 27.0624 12.6519 27.0711C12.9794 27.0799 13.3015 27.1562 13.5981 27.2953C13.8946 27.4344 14.1593 27.6333 14.3753 27.8795C14.5914 28.1257 14.7543 28.4139 14.8537 28.726C15.2514 29.9459 14.5825 31.2636 13.4048 31.7446L6.37085 34.6167C5.06852 35.1485 3.57261 35.0546 2.39965 34.2717C1.60031 33.7375 1.00437 32.9495 0.70808 32.0348C0.411788 31.1202 0.432442 30.1325 0.766705 29.231L5.95112 15.213C6.56539 13.5513 7.96451 12.3783 9.69424 12.0755C10.5366 11.9246 11.404 12.0008 12.207 12.2964C13.0101 12.592 13.72 13.0963 14.2634 13.7573L22.0046 23.0337L29.1248 20.1252C30.7069 19.4793 32.4491 19.8253 33.6709 21.0289ZM29.5646 25.6882C29.6547 25.4429 29.4132 25.2052 29.1736 25.3039L25.2398 26.91L27.5991 29.738C27.6326 29.7782 27.6761 29.8089 27.7252 29.8269C27.7744 29.845 27.8274 29.8497 27.8789 29.8407C27.9305 29.8316 27.9787 29.8091 28.0188 29.7754C28.0588 29.7417 28.0893 29.6981 28.107 29.6488L29.5637 25.6882H29.5646Z"
            fill="#BBBCC3" />
    </g>
    <defs>
        <clipPath id="clip0_38_4803">
            <rect width="168" height="48" fill="white" transform="translate(0.5)" />
        </clipPath>
    </defs>
</svg>