<svg xmlns="http://www.w3.org/2000/svg" width="100" height="30" viewBox="0 0 100 30" fill="none">
    <path
        d="M57.7114 1.01393V3.28721C57.7176 3.43966 57.7829 3.5836 57.8933 3.68811C58.0037 3.79262 58.1505 3.84936 58.302 3.84614H63.5479L57.5036 12.5524C57.1216 13.112 57.1216 13.7411 57.1216 14.0907V16.3982C57.1216 16.7479 57.5034 17.0974 57.8508 16.9226C61.255 15.0695 65.3887 15.2443 68.4803 16.8876C68.8621 17.0972 69.2095 16.7129 69.2095 16.3632V13.9506C69.1747 13.636 69.0706 13.2863 68.6885 13.0765C66.9519 12.0978 64.9022 11.8181 62.9569 11.8531L68.1673 4.37061C68.6537 3.67104 68.9316 3.25168 68.9316 2.937V1.01393C68.9256 0.86139 68.8603 0.717315 68.7499 0.612691C68.6394 0.508067 68.4926 0.451252 68.341 0.454465H58.2673C58.1932 0.450494 58.1192 0.462245 58.05 0.488956C57.9807 0.515667 57.9179 0.556738 57.8655 0.609503C57.813 0.662268 57.7722 0.725545 57.7457 0.795221C57.7192 0.864897 57.7075 0.939415 57.7114 1.01393Z"
        fill="#BBBCC4" />
    <path
        d="M17.9377 17.3774H20.9946C21.1446 17.3828 21.2914 17.3323 21.4068 17.2356C21.5221 17.1388 21.598 17.0026 21.6198 16.8531V8.46143C21.6198 8.40663 21.6198 8.35126 21.6197 8.29539C21.6177 6.46158 21.6151 4.09082 23.7388 4.09082C25.6778 4.09082 25.6458 6.21665 25.6201 7.91632C25.6173 8.10439 25.6145 8.28725 25.6145 8.46143V16.8531C25.6145 17.1329 25.8577 17.3775 26.1704 17.4125H29.2272C29.3788 17.4157 29.5256 17.3589 29.636 17.2543C29.7465 17.1497 29.8117 17.0056 29.8177 16.8531V8.46143C29.8177 8.38132 29.8174 8.29795 29.8171 8.21197C29.8143 7.32228 29.8105 6.15281 30.0955 5.41954C30.2437 5.04667 30.4969 4.72554 30.824 4.49567C31.1511 4.26581 31.5379 4.13725 31.9366 4.12582C32.8399 4.12582 33.4999 4.4405 33.743 5.48943C33.852 5.98331 33.8327 7.12316 33.8193 7.91205C33.8156 8.12844 33.8124 8.31842 33.8124 8.46143V16.8531C33.8124 17.1329 34.0556 17.3775 34.3682 17.4125H37.3907C37.5423 17.4157 37.6891 17.3589 37.7996 17.2543C37.91 17.1497 37.9752 17.0056 37.9812 16.8531V6.85314C37.9812 6.59834 37.9858 6.3389 37.9904 6.07746C38.017 4.581 38.0447 3.01919 37.217 1.88818C36.3485 0.664356 34.959 0.139893 33.6737 0.139893C31.8672 0.139893 30.1649 1.08393 29.4356 3.07689C28.6018 1.08393 27.3861 0.139893 25.4756 0.139893C23.5998 0.139893 22.1753 1.08393 21.4461 3.07689H21.3766V1.01393C21.3654 0.872574 21.3022 0.740503 21.1995 0.64352C21.0967 0.546537 20.9617 0.491607 20.8208 0.489463H17.9724C17.8208 0.486277 17.674 0.543107 17.5636 0.647728C17.4531 0.752349 17.3879 0.896407 17.3819 1.04893V16.853C17.4045 16.9897 17.4712 17.1151 17.5716 17.2099C17.6721 17.3046 17.8007 17.3635 17.9377 17.3774Z"
        fill="#BBBCC4" />
    <path fill-rule="evenodd" clip-rule="evenodd"
        d="M84.6326 9.05589C84.6326 4.05593 82.1663 0.139893 77.6157 0.139893C73.1694 0.139893 70.703 3.98593 70.7378 8.916C70.7378 13.8111 73.1694 17.7271 77.6157 17.7271C81.9232 17.7271 84.6326 13.8811 84.6326 9.05589ZM75.2189 8.42653C75.2189 6.50346 75.3578 3.39157 77.6157 3.39157C78.5884 3.39157 79.2831 3.81103 79.6305 4.92996C80.0126 6.18878 80.0821 7.79707 80.0821 9.12578C80.0821 11.1537 79.9432 14.4754 77.5811 14.4754C75.2174 14.4754 75.2184 10.4634 75.2189 8.50789L75.2189 8.42653Z"
        fill="#BBBCC4" />
    <path
        d="M87.4463 17.3774H90.5031C90.6569 17.376 90.8049 17.3189 90.9199 17.216C91.0348 17.1132 91.1088 16.9719 91.1283 16.8183V8.28643C91.1283 7.2025 91.1976 6.25815 91.6144 5.27943C91.9618 4.51007 92.6567 4.02071 93.386 4.02071C95.3347 4.02071 95.315 6.15004 95.2993 7.85204C95.2979 8.00074 95.2965 8.14617 95.2965 8.28664V16.8878C95.3313 17.1324 95.5745 17.3421 95.8523 17.3771H98.9094C99.0505 17.3834 99.189 17.3369 99.298 17.2465C99.4071 17.1562 99.479 17.0284 99.5 16.8878V6.92282C99.5 5.38432 99.5 3.25147 98.7011 1.99275C97.8326 0.628931 96.4779 0.139571 95.1232 0.139571C93.0042 0.139571 91.8232 1.1535 90.9547 3.32136H90.8853V0.908823C90.8544 0.782503 90.7834 0.669774 90.6831 0.587738C90.5828 0.505702 90.4586 0.458835 90.3295 0.454251H87.481C87.3363 0.455358 87.1969 0.509031 87.0884 0.605396C86.9799 0.701761 86.9096 0.834333 86.8905 0.978714V16.818C86.8905 17.0977 87.1336 17.3424 87.4463 17.3774Z"
        fill="#BBBCC4" />
    <path fill-rule="evenodd" clip-rule="evenodd"
        d="M52.4256 17.4956C52.5564 17.4831 52.68 17.4295 52.779 17.3425L52.7802 17.3424C53.0022 17.1562 53.2854 16.9128 53.588 16.6527C54.1377 16.1802 54.7513 15.6527 55.177 15.3145C55.4201 15.1397 55.3854 14.79 55.177 14.5103C55.1101 14.4134 55.0426 14.3191 54.9757 14.2256C54.4875 13.5429 54.0307 12.9041 54.0307 11.6432V6.85304C54.0307 6.69295 54.0316 6.53374 54.0324 6.37556C54.0425 4.53042 54.0517 2.82657 52.676 1.53839C51.4949 0.384572 49.5497 0 48.056 0C45.1381 0 41.9076 1.08393 41.2129 4.72029C41.1434 5.10496 41.4214 5.27975 41.6645 5.34964L44.6171 5.66432C44.8951 5.66432 45.0687 5.38454 45.1381 5.10486C45.3813 3.84604 46.4234 3.25168 47.6045 3.25168C48.2292 3.25168 48.924 3.49636 49.3061 4.05582C49.7053 4.61225 49.6973 5.36019 49.69 6.03334C49.6891 6.12157 49.6882 6.20851 49.6882 6.29357V6.67814C49.4001 6.71226 49.0974 6.74452 48.7852 6.77781C47.1774 6.9492 45.3181 7.14739 43.9219 7.76207C42.0108 8.60132 40.6561 10.2796 40.6561 12.797C40.6561 15.9788 42.6708 17.5872 45.2414 17.5872C47.395 17.5872 48.6109 17.0622 50.2782 15.3495C50.3594 15.4669 50.4332 15.5761 50.5031 15.6797C50.9122 16.2852 51.1895 16.6958 52.0498 17.4124C52.1633 17.479 52.2948 17.5081 52.4256 17.4956ZM49.6876 10.0129C49.6875 9.95079 49.6874 9.88821 49.6874 9.82514V9.16132C47.4643 9.16132 45.1369 9.65089 45.1369 12.2732C45.1369 13.6019 45.8316 14.511 47.0126 14.511C47.8811 14.511 48.6454 13.9865 49.1316 13.1124C49.6909 12.0854 49.6894 11.1217 49.6876 10.0129Z"
        fill="#BBBCC4" />
    <path fill-rule="evenodd" clip-rule="evenodd"
        d="M12.2695 17.4956C12.4003 17.4831 12.5239 17.4295 12.6229 17.3425L12.6241 17.3424C12.8461 17.1562 13.1293 16.9128 13.4319 16.6527C13.9816 16.1802 14.5952 15.6528 15.0209 15.3145C15.264 15.1397 15.2293 14.79 15.0209 14.5103C14.954 14.4134 14.8865 14.3191 14.8196 14.2256C14.3314 13.5429 13.8746 12.9041 13.8746 11.6432V6.85304C13.8746 6.69296 13.8755 6.53374 13.8763 6.37556C13.8864 4.53042 13.8957 2.82657 12.5199 1.53839C11.3388 0.384572 9.39362 0 7.89992 0C4.98206 0 1.75146 1.08393 1.05677 4.72029C0.987332 5.10496 1.26529 5.27975 1.50838 5.34964L4.46101 5.66432C4.73897 5.66432 4.91262 5.38454 4.98206 5.10486C5.22525 3.84604 6.26734 3.25168 7.44841 3.25168C8.07314 3.25168 8.76794 3.49636 9.15 4.05582C9.54919 4.61225 9.54117 5.36019 9.53395 6.03335C9.533 6.12157 9.53207 6.20852 9.53207 6.29357V6.67814C9.24406 6.71226 8.94134 6.74452 8.62913 6.77781C7.02131 6.9492 5.16202 7.14739 3.76579 7.76207C1.85472 8.60132 0.5 10.2796 0.5 12.797C0.5 15.9788 2.51475 17.5872 5.08531 17.5872C7.23894 17.5872 8.45478 17.0622 10.1221 15.3495C10.2033 15.4669 10.2771 15.5761 10.3471 15.6797C10.7561 16.2852 11.0335 16.6958 11.8937 17.4124C12.0072 17.479 12.1387 17.5081 12.2695 17.4956ZM9.5663 10.0129C9.5662 9.9508 9.5661 9.88822 9.5661 9.82514V9.16132C7.34294 9.16132 5.01556 9.65089 5.01556 12.2732C5.01556 13.6019 5.71025 14.511 6.89133 14.511C7.75977 14.511 8.52412 13.9865 9.01029 13.1124C9.56954 12.0854 9.56803 11.1218 9.5663 10.0129Z"
        fill="#BBBCC4" />
    <path
        d="M64.311 20.6991C63.5818 19.7551 59.4478 20.2445 57.6068 20.4893C57.051 20.5592 56.9468 20.0698 57.4679 19.7201C60.7679 17.3774 66.1521 18.0767 66.7774 18.8459C67.4026 19.6152 66.6037 25.0693 63.5116 27.657C63.0254 28.0416 62.5737 27.8318 62.7823 27.3074L62.8187 27.2159C63.5301 25.4273 65.028 21.6611 64.311 20.6991Z"
        fill="#BBBCC4" />
    <path
        d="M61.9144 23.4615C56.1827 27.7275 47.8459 30 40.6554 30C30.5816 30 21.5501 26.2588 14.6721 20.0351C14.1511 19.5457 14.6027 18.8813 15.2626 19.2658C22.6616 23.6014 31.7975 26.1889 41.2458 26.1889C47.6027 26.1889 54.6195 24.8603 61.0806 22.0979C62.0529 21.7134 62.8522 22.7623 61.9144 23.4615Z"
        fill="#BBBCC4" />
</svg>