<svg xmlns="http://www.w3.org/2000/svg" width="80" height="80" viewBox="0 0 80 80" fill="none">
    <circle cx="40" cy="40" r="40" fill="url(#paint0_linear_38_4913)" />
    <path
        d="M53.6723 29.0879V24.3361L54.1999 24.1599L39.6 18L25 24.1599L29.5735 25.8318C30.7168 25.2158 34.6746 23.1917 39.6 23.1917C43.0301 23.1917 46.3721 24.0718 49.6265 25.8318L52.7047 24.6878V29.088C51.9132 29.2639 51.2975 30.0561 51.2975 30.9361C51.2975 31.992 52.1771 32.7842 53.1446 32.7842C54.1999 32.7842 54.9917 31.9042 54.9917 30.9361C55.0791 29.968 54.4637 29.2642 53.6719 29.088L53.6723 29.0879Z"
        fill="white" />
    <path
        d="M34.762 55.8403H39.5992C39.9511 55.8403 40.303 56.1924 40.303 56.5445C40.303 56.8965 39.9511 57.2486 39.5992 57.2486L34.762 57.2483V57.6882C34.762 58.2161 35.2016 58.6563 35.7296 58.6563H43.3812C43.9089 58.6563 44.3488 58.2165 44.3488 57.6882V54.3442H34.7617L34.762 55.8403Z"
        fill="white" />
    <path
        d="M48.6596 34.808C42.767 31.7281 36.5219 31.7281 30.4539 34.808C29.6624 36.3041 29.3105 37.8879 29.3105 39.5598C29.3105 41.9359 30.1901 44.3117 31.6853 46.1599L31.8611 46.3358C33.6202 48.3598 34.6755 49.6797 34.7635 52.4956H38.6333V44.9275C36.6103 44.4876 35.0274 42.6395 35.0274 40.5273C35.0274 38.0635 37.0503 35.9513 39.6009 35.9513C42.1514 35.9513 44.1743 37.9754 44.1743 40.5273C44.1743 42.7273 42.5913 44.4873 40.5685 44.9275V52.4956L44.4382 52.4959C44.5262 49.7681 45.5816 48.536 47.1646 46.6001L47.6922 45.984C49.1875 44.1359 49.8909 41.936 49.8909 39.5599C49.8909 37.976 49.4513 36.3038 48.7475 34.8958C48.7479 34.8961 48.6598 34.808 48.6598 34.808L48.6596 34.808Z"
        fill="white" />
    <path
        d="M39.6008 61.9994C40.5684 61.9994 41.3599 61.3837 41.7118 60.5923H37.4902C37.8418 61.4719 38.7213 61.9994 39.6009 61.9994H39.6008Z"
        fill="white" />
    <path
        d="M31.5976 32.6962C37.4022 30.3201 43.2951 30.4959 48.8355 33.3119V27.0639C45.845 25.4801 42.679 24.6001 39.6004 24.6001C35.2027 24.6001 31.5088 26.4482 30.3652 27.0639V33.3119C30.7171 33.136 31.069 32.9598 31.5086 32.784C31.597 32.784 31.597 32.784 31.597 32.6962L31.5976 32.6962Z"
        fill="white" />
    <path
        d="M42.2382 40.4394C42.2382 38.9433 41.0949 37.7993 39.5996 37.7993C38.1043 37.7993 36.9609 38.9433 36.9609 40.4394C36.9609 41.9355 38.1043 43.0795 39.5996 43.0795C41.0949 43.0795 42.2382 41.8478 42.2382 40.4394Z"
        fill="white" />
    <defs>
        <linearGradient id="paint0_linear_38_4913" x1="52.2727" y1="77.7273" x2="24.3344" y2="3.8882"
            gradientUnits="userSpaceOnUse">
            <stop stop-color="#6BCEFD" />
            <stop offset="1" stop-color="#32A9DF" />
        </linearGradient>
    </defs>
</svg>