<svg xmlns="http://www.w3.org/2000/svg" width="80" height="80" viewBox="0 0 80 80" fill="none">
    <circle cx="40" cy="40" r="40" fill="url(#paint0_linear_38_4824)" />
    <path fill-rule="evenodd" clip-rule="evenodd"
        d="M56.8801 40.6463C55.2688 42.3189 52.0048 40.6046 50.5998 39.2246C50.3933 39.0155 50.104 38.9735 49.8975 39.0991C49.1125 39.5591 48.1209 39.7681 46.8401 39.7681C45.6833 39.7681 44.4437 39.4753 43.6587 39.0153C43.2869 38.8063 42.8737 38.9736 42.7496 39.3498C41.9646 42.0679 38.4527 41.6914 36.7589 39.7681C36.5523 39.5171 36.2631 39.4753 36.0151 39.6008C35.1888 40.1026 33.9905 40.3536 32.7925 40.3536C31.4292 40.3536 29.9003 40.1026 29.2805 39.6008C28.6195 39.6426 25.1904 42.0262 24.0333 40.2699C23.744 39.6843 24.405 38.4718 25.8926 37.3428H54.6902C55.1034 37.8863 57.5823 39.5171 56.88 40.6461L56.8801 40.6463Z"
        fill="white" />
    <path fill-rule="evenodd" clip-rule="evenodd"
        d="M36.6731 44.1591L27.8725 43.6991C26.8398 43.5736 26.2612 42.9046 26.0547 41.9428C27.1703 41.7755 28.1618 41.3155 29.1533 40.772C30.0209 41.3155 31.3017 41.6083 32.7065 41.6083L36.6731 44.1591Z"
        fill="white" />
    <path fill-rule="evenodd" clip-rule="evenodd"
        d="M46.8362 40.981C47.9517 40.981 49.0673 40.8555 50.0588 40.3955C51.4221 41.5663 53.4467 42.5281 55.182 42.5281C55.058 43.1971 54.5622 43.6154 53.9012 43.6572L44.6464 44.2427L46.8362 40.9811L46.8362 40.981Z"
        fill="white" />
    <path fill-rule="evenodd" clip-rule="evenodd"
        d="M42.6185 45.0372C42.2052 45.6227 41.4204 45.7479 40.8006 45.4134L34.6445 41.399C35.2231 41.2735 35.7188 41.1063 36.1731 40.8973C38.3215 43.0299 42.2466 43.2809 43.6514 40.3955C44.1884 40.6045 44.8082 40.7718 45.428 40.8555L42.6185 45.0372Z"
        fill="white" />
    <path fill-rule="evenodd" clip-rule="evenodd"
        d="M54.1084 47.6717C45.1841 47.839 36.3011 47.7972 27.2943 47.63C25.3937 47.5045 25.5589 44.9539 27.129 44.7866C30.4757 44.9121 34.8554 45.4974 38.7392 45.4974C40.4745 46.6264 42.2098 47.7972 43.7797 45.5391C46.052 45.3719 52.4146 45.0374 54.3981 44.8284C55.9266 45.1629 55.8029 47.6717 54.1088 47.6717H54.1084Z"
        fill="white" />
    <path fill-rule="evenodd" clip-rule="evenodd"
        d="M49.1465 53.8185H32.2484C29.3563 53.8185 26.9599 51.6021 26.5469 48.8005C28.9433 49.0095 51.0063 49.0095 54.807 48.7588C54.4352 51.6021 52.0389 53.8185 49.1467 53.8185L49.1465 53.8185Z"
        fill="white" />
    <path fill-rule="evenodd" clip-rule="evenodd"
        d="M26.5098 35.2937C26.5098 28.3942 32.7486 23 40.6814 23C48.449 23 54.853 27.8924 54.853 36.0881H26.5104L26.5098 35.2937ZM45.4325 25.9688C46.4241 25.9688 47.2504 26.8051 47.2504 27.8086C47.2504 28.8121 46.4241 29.6484 45.4325 29.6484C44.441 29.6484 43.6147 28.8121 43.6147 27.8086C43.6147 26.8051 44.441 25.9688 45.4325 25.9688ZM32.7482 30.6939C33.6573 30.6939 34.3595 31.4047 34.3595 32.283C34.3595 33.161 33.6573 33.872 32.7482 33.872C31.8806 33.872 31.1781 33.1613 31.1781 32.283C31.1781 31.4049 31.8804 30.6939 32.7482 30.6939ZM49.8119 30.8194C50.2664 30.8194 50.6382 31.1957 50.6382 31.6557C50.6382 32.1157 50.2664 32.4502 49.8119 32.4502C49.3574 32.4502 49.0269 32.1157 49.0269 31.6557C49.0269 31.1957 49.3574 30.8194 49.8119 30.8194ZM42.9948 29.8576C43.8623 29.8576 44.6061 30.5684 44.6061 31.4467C44.6061 32.3247 43.8623 33.0775 42.9948 33.0775C42.1272 33.0775 41.4247 32.3247 41.4247 31.4467C41.4247 30.5687 42.127 29.8576 42.9948 29.8576ZM37.9543 28.9796C38.6981 28.9796 39.2763 29.6069 39.2763 30.3176C39.2763 31.0704 38.6978 31.6974 37.9543 31.6974C37.2105 31.6974 36.6322 31.0701 36.6322 30.3176C36.6322 29.6069 37.2108 28.9796 37.9543 28.9796ZM37.2105 27.1815C37.665 27.1815 38.0368 27.5578 38.0368 27.976C38.0368 28.436 37.6651 28.8123 37.2105 28.8123C36.756 28.8123 36.4255 28.4361 36.4255 27.976C36.4255 27.5578 36.756 27.1815 37.2105 27.1815Z"
        fill="white" />
    <path
        d="M23.1339 56.7377C23.1266 56.7411 23.1192 56.7436 23.1114 56.7456C23.1036 56.7475 23.0953 56.7485 23.087 56.7485C23.0621 56.7485 23.0424 56.7416 23.0275 56.7278C23.0131 56.7134 23.006 56.6939 23.006 56.6694C23.006 56.6452 23.0131 56.6259 23.0275 56.6121C23.0424 56.5977 23.0621 56.5903 23.087 56.5903C23.0953 56.5903 23.1036 56.5913 23.1114 56.5933C23.1192 56.5948 23.1266 56.5973 23.1339 56.6012V56.6328C23.1266 56.6284 23.1195 56.6249 23.1124 56.623C23.1051 56.6205 23.098 56.619 23.0909 56.619C23.0765 56.619 23.0655 56.6237 23.0577 56.6328C23.0499 56.6415 23.046 56.6536 23.046 56.6694C23.046 56.6853 23.0499 56.6979 23.0577 56.707C23.0655 56.7157 23.0765 56.7199 23.0909 56.7199C23.098 56.7199 23.1051 56.7189 23.1124 56.7169C23.1195 56.7144 23.1266 56.7107 23.1339 56.706V56.7377Z"
        fill="white" />
    <path
        d="M23.251 56.6625C23.2476 56.6606 23.2444 56.6593 23.2412 56.6586C23.2377 56.6581 23.2347 56.6576 23.2323 56.6576C23.2224 56.6576 23.2147 56.6611 23.2095 56.6675C23.2048 56.6734 23.2026 56.6821 23.2026 56.6932V56.7456H23.166V56.6309H23.2026V56.6497C23.207 56.6425 23.2125 56.6373 23.2184 56.6339C23.2248 56.6299 23.2323 56.6279 23.2402 56.6279C23.2414 56.6279 23.2426 56.6284 23.2441 56.6289H23.251V56.6625Z"
        fill="white" />
    <path
        d="M23.3817 56.6882V56.6981H23.2967C23.2972 56.7068 23.3002 56.7135 23.3055 56.7179C23.3107 56.7219 23.3182 56.7238 23.328 56.7238C23.3358 56.7238 23.3436 56.7229 23.3514 56.7209C23.3592 56.7184 23.3673 56.7147 23.3758 56.71V56.7387C23.3673 56.7421 23.3587 56.7444 23.3504 56.7456C23.3419 56.7476 23.3331 56.7486 23.3241 56.7486C23.3038 56.7486 23.288 56.7434 23.2762 56.7327C23.265 56.7224 23.2596 56.7075 23.2596 56.6882C23.2596 56.67 23.265 56.6554 23.2762 56.6447C23.2872 56.6336 23.3026 56.6279 23.3221 56.6279C23.3402 56.6279 23.3546 56.6336 23.3651 56.6447C23.3761 56.6554 23.3817 56.67 23.3817 56.6882ZM23.3436 56.6754C23.3436 56.669 23.3417 56.6635 23.3378 56.6596C23.3339 56.6551 23.3285 56.6526 23.3221 56.6526C23.3148 56.6526 23.309 56.6546 23.3046 56.6586C23.3007 56.6625 23.298 56.6682 23.2967 56.6754L23.3436 56.6754Z"
        fill="white" />
    <path
        d="M23.456 56.6942C23.4482 56.6942 23.4424 56.6957 23.4385 56.6981C23.4346 56.7009 23.4326 56.7046 23.4326 56.709C23.4326 56.7137 23.4341 56.7174 23.4375 56.7199C23.4407 56.7226 23.4448 56.7238 23.4502 56.7238C23.4573 56.7238 23.4631 56.7216 23.4678 56.7169C23.4722 56.7117 23.4746 56.7056 23.4746 56.6981V56.6942H23.456ZM23.5107 56.6803V56.7456H23.4746V56.7288C23.47 56.7355 23.4643 56.7404 23.458 56.7436C23.4521 56.7468 23.4448 56.7486 23.4365 56.7486C23.4248 56.7486 23.415 56.7453 23.4072 56.7387C23.3999 56.7315 23.3965 56.7224 23.3965 56.711C23.3965 56.6979 23.4009 56.6882 23.4102 56.6823C23.4192 56.6759 23.4336 56.6724 23.4531 56.6724H23.4746V56.6695C23.4746 56.6635 23.4722 56.6593 23.4678 56.6566C23.4631 56.6541 23.456 56.6526 23.4463 56.6526C23.439 56.6526 23.4319 56.6536 23.4248 56.6556C23.4182 56.6571 23.4121 56.6591 23.4062 56.6615V56.6339C23.4141 56.6319 23.4219 56.6306 23.4297 56.6299C23.4375 56.6287 23.4453 56.6279 23.4531 56.6279C23.4739 56.6279 23.4885 56.6324 23.4971 56.6408C23.5061 56.6487 23.5107 56.662 23.5107 56.6803Z"
        fill="white" />
    <path
        d="M23.585 56.5981V56.6308H23.6221V56.6575H23.585V56.7059C23.585 56.7114 23.5859 56.7148 23.5879 56.7168C23.5903 56.7183 23.5947 56.7188 23.6006 56.7188H23.6191V56.7455H23.5879C23.5742 56.7455 23.564 56.7425 23.5576 56.7366C23.5518 56.7306 23.5488 56.7205 23.5488 56.7059V56.6575H23.5312V56.6308H23.5488V56.5981L23.585 56.5981Z"
        fill="white" />
    <path
        d="M23.7568 56.6882V56.6981H23.6719C23.6724 56.7068 23.6753 56.7135 23.6807 56.7179C23.6858 56.7219 23.6933 56.7238 23.7031 56.7238C23.7109 56.7238 23.7187 56.7229 23.7265 56.7209C23.7344 56.7184 23.7424 56.7147 23.751 56.71V56.7387C23.7424 56.7421 23.7339 56.7444 23.7256 56.7456C23.717 56.7476 23.7082 56.7486 23.6992 56.7486C23.6789 56.7486 23.6631 56.7434 23.6514 56.7327C23.6401 56.7224 23.6348 56.7075 23.6348 56.6882C23.6348 56.67 23.6401 56.6554 23.6514 56.6447C23.6623 56.6336 23.6777 56.6279 23.6973 56.6279C23.7153 56.6279 23.7297 56.6336 23.7402 56.6447C23.7512 56.6554 23.7568 56.67 23.7568 56.6882ZM23.7187 56.6754C23.7187 56.669 23.7168 56.6635 23.7129 56.6596C23.709 56.6551 23.7036 56.6526 23.6973 56.6526C23.6899 56.6526 23.6841 56.6546 23.6797 56.6586C23.6758 56.6625 23.6731 56.6682 23.6719 56.6754L23.7187 56.6754Z"
        fill="white" />
    <path
        d="M23.8564 56.6472V56.5859H23.8926V56.7451H23.8564V56.7283C23.8511 56.735 23.8457 56.7399 23.8398 56.7432C23.834 56.7464 23.8267 56.7481 23.8184 56.7481C23.8047 56.7481 23.7932 56.7427 23.7842 56.7313C23.7756 56.7202 23.7715 56.7056 23.7715 56.6878C23.7715 56.67 23.7756 56.6556 23.7842 56.6443C23.7932 56.6332 23.8047 56.6275 23.8184 56.6275C23.8262 56.6275 23.833 56.6292 23.8389 56.6324C23.8452 56.6359 23.8511 56.6408 23.8564 56.6472ZM23.832 56.7214C23.8398 56.7214 23.8457 56.7189 23.8496 56.7135C23.854 56.7076 23.8564 56.6992 23.8564 56.6878C23.8564 56.6774 23.854 56.669 23.8496 56.6631C23.8457 56.6571 23.8398 56.6542 23.832 56.6542C23.8242 56.6542 23.8184 56.6571 23.8144 56.6631C23.8105 56.669 23.8086 56.6774 23.8086 56.6878C23.8086 56.6992 23.8105 56.7076 23.8144 56.7135C23.8184 56.7189 23.8242 56.7214 23.832 56.7214Z"
        fill="white" />
    <path
        d="M24.0664 56.7214C24.0735 56.7214 24.0791 56.7189 24.083 56.7135C24.0874 56.7076 24.0898 56.6992 24.0898 56.6878C24.0898 56.6774 24.0874 56.669 24.083 56.6631C24.0791 56.6571 24.0735 56.6542 24.0664 56.6542C24.0586 56.6542 24.0522 56.6571 24.0478 56.6631C24.0439 56.669 24.042 56.6774 24.042 56.6878C24.042 56.6992 24.0439 56.7076 24.0478 56.7135C24.0522 56.7189 24.0586 56.7214 24.0664 56.7214ZM24.042 56.6472C24.0471 56.6408 24.0527 56.6359 24.0586 56.6324C24.0644 56.6292 24.0713 56.6275 24.0791 56.6275C24.0932 56.6275 24.1047 56.6332 24.1133 56.6443C24.1223 56.6556 24.1269 56.67 24.1269 56.6878C24.1269 56.7056 24.1223 56.7202 24.1133 56.7313C24.1047 56.7427 24.0932 56.7481 24.0791 56.7481C24.0713 56.7481 24.0644 56.7464 24.0586 56.7432C24.0527 56.7399 24.0471 56.735 24.042 56.7283V56.7451H24.0059V56.5859H24.042V56.6472Z"
        fill="white" />
    <path
        d="M24.1387 56.6309H24.1748L24.2051 56.709L24.2305 56.6309H24.2666L24.2197 56.7564C24.2143 56.7688 24.2085 56.7777 24.2021 56.7831C24.1963 56.7883 24.188 56.791 24.1777 56.791H24.1562V56.7663H24.168C24.1738 56.7663 24.178 56.7653 24.1807 56.7634C24.1838 56.7614 24.186 56.7579 24.1875 56.7535L24.1885 56.7495L24.1387 56.6309Z"
        fill="white" />
    <path
        d="M24.454 56.6349V56.6625C24.4462 56.6593 24.4386 56.6571 24.4315 56.6556C24.4242 56.6536 24.4173 56.6526 24.411 56.6526C24.4044 56.6526 24.3995 56.6536 24.3964 56.6556C24.3929 56.6571 24.3915 56.6596 24.3915 56.6635C24.3915 56.6662 24.3925 56.6685 24.3944 56.6704C24.3968 56.6719 24.4015 56.6729 24.4081 56.6734L24.4149 56.6744C24.433 56.6771 24.4454 56.6811 24.452 56.6863C24.4584 56.6917 24.4618 56.7001 24.4618 56.712C24.4618 56.7238 24.4571 56.7332 24.4481 56.7397C24.4396 56.7456 24.4266 56.7486 24.4091 56.7486C24.4012 56.7486 24.3934 56.7478 24.3856 56.7466C24.3778 56.7453 24.3695 56.7436 24.3612 56.7416V56.714C24.3683 56.7174 24.3754 56.7199 24.3827 56.7219C24.3905 56.7233 24.3983 56.7238 24.4061 56.7238C24.4132 56.7238 24.4183 56.7229 24.4217 56.7209C24.4256 56.7189 24.4276 56.7159 24.4276 56.712C24.4276 56.7088 24.4261 56.7065 24.4237 56.7051C24.421 56.7038 24.4161 56.7026 24.4091 56.7011L24.4032 56.7001C24.3868 56.6981 24.3754 56.6947 24.369 56.6892C24.3624 56.684 24.3593 56.6754 24.3593 56.6635C24.3593 56.6517 24.3632 56.6428 24.371 56.6368C24.3793 56.6309 24.392 56.6279 24.4091 56.6279C24.4161 56.6279 24.4232 56.6287 24.4305 56.6299C24.4376 56.6306 24.4454 56.6324 24.454 56.6349Z"
        fill="white" />
    <path
        d="M24.4863 56.7011V56.6309H24.5225V56.6427V56.6665V56.6843V56.705C24.5229 56.709 24.5239 56.7117 24.5254 56.7129C24.5266 56.7156 24.5283 56.7176 24.5303 56.7189C24.5327 56.7203 24.5356 56.7208 24.5391 56.7208C24.5469 56.7208 24.5527 56.7179 24.5566 56.7119C24.561 56.706 24.5635 56.6978 24.5635 56.6872V56.6309H24.5996V56.7456H24.5635V56.7287C24.5581 56.7354 24.5522 56.7404 24.5459 56.7436C24.54 56.7468 24.5334 56.7485 24.5264 56.7485C24.5132 56.7485 24.5032 56.7446 24.4961 56.7367C24.4895 56.7283 24.4863 56.7164 24.4863 56.7011Z"
        fill="white" />
    <path
        d="M24.7314 56.6497C24.7358 56.6433 24.7414 56.6378 24.748 56.6339C24.7544 56.6299 24.7612 56.6279 24.7685 56.6279C24.7815 56.6279 24.7912 56.6324 24.7978 56.6408C24.8049 56.6487 24.8086 56.6603 24.8086 56.6754V56.7456H24.7724V56.6863V56.6833V56.6793C24.7724 56.6709 24.771 56.665 24.7685 56.6616C24.7666 56.6576 24.7629 56.6556 24.7578 56.6556C24.7505 56.6556 24.7451 56.6586 24.7412 56.6645C24.7378 56.6704 24.7358 56.6789 24.7353 56.6892V56.7456H24.6992V56.6863C24.6992 56.6732 24.6982 56.665 24.6963 56.6615C24.6943 56.6576 24.6904 56.6556 24.6846 56.6556C24.6772 56.6556 24.6719 56.6586 24.668 56.6645C24.6645 56.6704 24.6631 56.6789 24.6631 56.6892V56.7456H24.627V56.6309H24.6631V56.6477C24.6675 56.6413 24.6724 56.6363 24.6777 56.6329C24.6836 56.6297 24.6899 56.6279 24.6973 56.6279C24.7051 56.6279 24.7119 56.6299 24.7178 56.6339C24.7236 56.6378 24.728 56.6433 24.7314 56.6497Z"
        fill="white" />
    <path
        d="M24.9609 56.6749V56.7451H24.9248V56.6917C24.9248 56.6818 24.9243 56.6754 24.9238 56.672C24.9238 56.668 24.9231 56.665 24.9219 56.6631C24.9204 56.6606 24.9184 56.6586 24.916 56.6571C24.9133 56.6559 24.9106 56.6552 24.9082 56.6552C24.9004 56.6552 24.894 56.6581 24.8896 56.664C24.8857 56.67 24.8838 56.6784 24.8838 56.6888V56.7451H24.8477V56.5859H24.8838V56.6472C24.8889 56.6408 24.8945 56.6359 24.9004 56.6324C24.9067 56.6292 24.9136 56.6275 24.9209 56.6275C24.9346 56.6275 24.9446 56.6319 24.9512 56.6403C24.9575 56.6482 24.9609 56.6598 24.9609 56.6749Z"
        fill="white" />
    <path d="M24.9922 56.6309H25.0288V56.7456H24.9922V56.6309ZM24.9922 56.5864H25.0288V56.6161H24.9922V56.5864Z"
        fill="white" />
    <path d="M25.1523 56.7749V56.7947H25.0488V56.7749H25.1523Z" fill="white" />
    <path d="M25.1603 56.6309H25.1969V56.7456H25.1603V56.6309ZM25.1603 56.5864H25.1969V56.6161H25.1603V56.5864Z"
        fill="white" />
    <path
        d="M25.3242 56.6349V56.6645C25.3196 56.6613 25.3147 56.6591 25.3096 56.6576C25.3049 56.6556 25.3 56.6546 25.2949 56.6546C25.2844 56.6546 25.2764 56.6576 25.2705 56.6635C25.2651 56.6695 25.2627 56.6779 25.2627 56.6882C25.2627 56.6989 25.2651 56.7075 25.2705 56.714C25.2764 56.7199 25.2844 56.7229 25.2949 56.7229C25.3 56.7229 25.3052 56.7219 25.3105 56.7199C25.3157 56.7179 25.3203 56.7154 25.3242 56.712V56.7426C25.3188 56.7446 25.3135 56.7458 25.3076 56.7466C25.3017 56.7478 25.2959 56.7486 25.29 56.7486C25.2698 56.7486 25.2539 56.7434 25.2422 56.7327C25.2305 56.7224 25.2246 56.7075 25.2246 56.6882C25.2246 56.6692 25.2305 56.6544 25.2422 56.6438C25.2539 56.6334 25.2698 56.6279 25.29 56.6279C25.2959 56.6279 25.3017 56.6287 25.3076 56.6299C25.3135 56.6306 25.3188 56.6324 25.3242 56.6349Z"
        fill="white" />
    <path
        d="M25.4178 56.6546C25.41 56.6546 25.4037 56.6576 25.3993 56.6635C25.3954 56.669 25.3934 56.6771 25.3934 56.6882C25.3934 56.6996 25.3954 56.708 25.3993 56.714C25.4037 56.7199 25.41 56.7229 25.4178 56.7229C25.4256 56.7229 25.4315 56.7199 25.4354 56.714C25.4398 56.708 25.4422 56.6996 25.4422 56.6882C25.4422 56.6771 25.4398 56.669 25.4354 56.6635C25.4315 56.6576 25.4256 56.6546 25.4178 56.6546ZM25.4178 56.6279C25.4374 56.6279 25.4525 56.6336 25.4637 56.6447C25.4747 56.6554 25.4803 56.67 25.4803 56.6882C25.4803 56.7075 25.4747 56.7224 25.4637 56.7327C25.4525 56.7434 25.4374 56.7486 25.4178 56.7486C25.3983 56.7486 25.3829 56.7434 25.3719 56.7327C25.3607 56.7224 25.3553 56.7075 25.3553 56.6882C25.3553 56.67 25.3607 56.6554 25.3719 56.6447C25.3829 56.6336 25.3983 56.6279 25.4178 56.6279Z"
        fill="white" />
    <path
        d="M25.6074 56.6754V56.7456H25.5713V56.6922C25.5713 56.6823 25.5708 56.6759 25.5703 56.6724C25.5703 56.6685 25.5696 56.6655 25.5683 56.6635C25.5669 56.6611 25.5649 56.6591 25.5625 56.6576C25.5598 56.6564 25.5571 56.6556 25.5547 56.6556C25.5469 56.6556 25.5405 56.6586 25.5361 56.6645C25.5322 56.6704 25.5303 56.6789 25.5303 56.6892V56.7456H25.4941V56.6309H25.5303V56.6477C25.5354 56.6413 25.541 56.6363 25.5469 56.6329C25.5532 56.6297 25.56 56.6279 25.5674 56.6279C25.581 56.6279 25.591 56.6324 25.5976 56.6408C25.604 56.6487 25.6074 56.6603 25.6074 56.6754Z"
        fill="white" />
    <path
        d="M23.089 56.7954V56.8191H23.0692C23.0638 56.8191 23.0603 56.8201 23.0583 56.8221C23.0564 56.8241 23.0554 56.8275 23.0554 56.832V56.8399H23.086V56.8666H23.0554V56.9546H23.0178V56.8666H23V56.8399H23.0178V56.832C23.0178 56.8196 23.0213 56.8102 23.0287 56.8043C23.0358 56.7984 23.0467 56.7954 23.0613 56.7954L23.089 56.7954Z"
        fill="white" />
    <path
        d="M23.1867 56.8715C23.1833 56.8695 23.18 56.8683 23.1768 56.8676C23.1734 56.8671 23.1704 56.8666 23.1679 56.8666C23.158 56.8666 23.1504 56.87 23.1452 56.8765C23.1405 56.8824 23.1383 56.891 23.1383 56.9022V56.9546H23.1017V56.8399H23.1383V56.8587C23.1427 56.8515 23.1482 56.8463 23.1541 56.8428C23.1605 56.8389 23.1679 56.8369 23.1758 56.8369C23.1771 56.8369 23.1783 56.8374 23.1798 56.8379H23.1867V56.8715Z"
        fill="white" />
    <path
        d="M23.2617 56.8631C23.2539 56.8631 23.2476 56.8661 23.2432 56.872C23.2393 56.8775 23.2373 56.8856 23.2373 56.8967C23.2373 56.9081 23.2393 56.9165 23.2432 56.9224C23.2476 56.9284 23.2539 56.9313 23.2617 56.9313C23.2695 56.9313 23.2754 56.9284 23.2793 56.9224C23.2837 56.9165 23.2861 56.9081 23.2861 56.8967C23.2861 56.8856 23.2837 56.8775 23.2793 56.872C23.2754 56.8661 23.2695 56.8631 23.2617 56.8631ZM23.2617 56.8364C23.2812 56.8364 23.2964 56.8421 23.3076 56.8532C23.3186 56.8639 23.3242 56.8784 23.3242 56.8967C23.3242 56.916 23.3186 56.9309 23.3076 56.9412C23.2964 56.9519 23.2812 56.9571 23.2617 56.9571C23.2422 56.9571 23.2268 56.9519 23.2158 56.9412C23.2046 56.9309 23.1992 56.916 23.1992 56.8967C23.1992 56.8784 23.2046 56.8639 23.2158 56.8532C23.2268 56.8421 23.2422 56.8364 23.2617 56.8364Z"
        fill="white" />
    <path
        d="M23.4482 56.8587C23.4526 56.8522 23.4582 56.8468 23.4648 56.8428C23.4712 56.8389 23.478 56.8369 23.4853 56.8369C23.4983 56.8369 23.508 56.8414 23.5146 56.8498C23.5217 56.8577 23.5254 56.8693 23.5254 56.8844V56.9546H23.4892V56.8953V56.8923V56.8883C23.4892 56.8799 23.4878 56.874 23.4853 56.8705C23.4834 56.8666 23.4797 56.8646 23.4746 56.8646C23.4673 56.8646 23.4619 56.8676 23.458 56.8735C23.4546 56.8794 23.4526 56.8878 23.4521 56.8982V56.9546H23.416V56.8953C23.416 56.8822 23.415 56.874 23.4131 56.8705C23.4111 56.8666 23.4072 56.8646 23.4014 56.8646C23.394 56.8646 23.3887 56.8676 23.3848 56.8735C23.3813 56.8794 23.3799 56.8878 23.3799 56.8982V56.9546H23.3438V56.8399H23.3799V56.8567C23.3843 56.8503 23.3892 56.8453 23.3945 56.8419C23.4004 56.8386 23.4067 56.8369 23.4141 56.8369C23.4219 56.8369 23.4287 56.8389 23.4346 56.8428C23.4404 56.8468 23.4448 56.8522 23.4482 56.8587Z"
        fill="white" />
    <path
        d="M23.6787 56.8066V56.8393H23.7158V56.866H23.6787V56.9144C23.6787 56.9199 23.6797 56.9233 23.6816 56.9253C23.6841 56.9268 23.6885 56.9273 23.6943 56.9273H23.7129V56.954H23.6816C23.668 56.954 23.6577 56.951 23.6514 56.9451C23.6455 56.9391 23.6426 56.929 23.6426 56.9144V56.866H23.625V56.8393H23.6426V56.8066L23.6787 56.8066Z"
        fill="white" />
    <path
        d="M23.8478 56.8839V56.9541H23.8116V56.9007C23.8116 56.8908 23.8111 56.8844 23.8107 56.8809C23.8107 56.877 23.8099 56.874 23.8087 56.872C23.8072 56.8696 23.8053 56.8676 23.8028 56.8661C23.8002 56.8649 23.7975 56.8641 23.795 56.8641C23.7872 56.8641 23.7809 56.8671 23.7765 56.873C23.7726 56.879 23.7706 56.8874 23.7706 56.8978V56.9541H23.7345V56.7949H23.7706V56.8562C23.7758 56.8498 23.7814 56.8449 23.7872 56.8414C23.7936 56.8382 23.8004 56.8364 23.8077 56.8364C23.8214 56.8364 23.8314 56.8409 23.838 56.8493C23.8443 56.8572 23.8478 56.8688 23.8478 56.8839Z"
        fill="white" />
    <path
        d="M23.9913 56.8967V56.9066H23.9064C23.9069 56.9153 23.9098 56.922 23.9152 56.9264C23.9203 56.9304 23.9278 56.9323 23.9376 56.9323C23.9454 56.9323 23.9532 56.9313 23.961 56.9294C23.9689 56.9269 23.9769 56.9232 23.9855 56.9185V56.9472C23.9769 56.9506 23.9684 56.9529 23.9601 56.9541C23.9515 56.9561 23.9427 56.9571 23.9337 56.9571C23.9134 56.9571 23.8976 56.9519 23.8859 56.9412C23.8746 56.9309 23.8693 56.916 23.8693 56.8967C23.8693 56.8784 23.8746 56.8639 23.8859 56.8532C23.8968 56.8421 23.9122 56.8364 23.9318 56.8364C23.9498 56.8364 23.9642 56.8421 23.9747 56.8532C23.9857 56.8639 23.9913 56.8784 23.9913 56.8967ZM23.9532 56.8839C23.9532 56.8775 23.9513 56.872 23.9474 56.8681C23.9435 56.8636 23.9381 56.8611 23.9318 56.8611C23.9244 56.8611 23.9186 56.8631 23.9142 56.8671C23.9103 56.871 23.9076 56.8767 23.9064 56.8839L23.9532 56.8839Z"
        fill="white" />
    <path
        d="M24.0957 56.8013H24.1396L24.1943 56.9061V56.8013H24.2314V56.9545H24.1875L24.1328 56.8497V56.9545H24.0957V56.8013Z"
        fill="white" />
    <path
        d="M24.3182 56.8631C24.3104 56.8631 24.3041 56.8661 24.2997 56.872C24.2958 56.8775 24.2938 56.8856 24.2938 56.8967C24.2938 56.9081 24.2958 56.9165 24.2997 56.9224C24.3041 56.9284 24.3104 56.9313 24.3182 56.9313C24.326 56.9313 24.3319 56.9284 24.3358 56.9224C24.3402 56.9165 24.3426 56.9081 24.3426 56.8967C24.3426 56.8856 24.3402 56.8775 24.3358 56.872C24.3319 56.8661 24.326 56.8631 24.3182 56.8631ZM24.3182 56.8364C24.3378 56.8364 24.3529 56.8421 24.3641 56.8532C24.3751 56.8639 24.3807 56.8784 24.3807 56.8967C24.3807 56.916 24.3751 56.9309 24.3641 56.9412C24.3529 56.9519 24.3378 56.9571 24.3182 56.9571C24.2987 56.9571 24.2833 56.9519 24.2723 56.9412C24.2611 56.9309 24.2557 56.916 24.2557 56.8967C24.2557 56.8784 24.2611 56.8639 24.2723 56.8532C24.2833 56.8421 24.2987 56.8364 24.3182 56.8364Z"
        fill="white" />
    <path
        d="M24.4063 56.9091V56.8389H24.4424V56.8507V56.8745V56.8923V56.913C24.4429 56.917 24.4438 56.9197 24.4453 56.9209C24.4465 56.9237 24.4482 56.9256 24.4502 56.9269C24.4526 56.9284 24.4556 56.9288 24.459 56.9288C24.4668 56.9288 24.4726 56.9259 24.4766 56.9199C24.4809 56.914 24.4834 56.9059 24.4834 56.8952V56.8389H24.5195V56.9536H24.4834V56.9368C24.478 56.9434 24.4722 56.9484 24.4658 56.9516C24.46 56.9548 24.4534 56.9565 24.4463 56.9565C24.4331 56.9565 24.4231 56.9526 24.416 56.9447C24.4094 56.9363 24.4063 56.9244 24.4063 56.9091Z"
        fill="white" />
    <path
        d="M24.6737 56.8844V56.9546H24.6376V56.9012C24.6376 56.8913 24.6371 56.8849 24.6366 56.8814C24.6366 56.8775 24.6359 56.8745 24.6346 56.8725C24.6332 56.87 24.6312 56.8681 24.6288 56.8666C24.6261 56.8653 24.6234 56.8646 24.621 56.8646C24.6132 56.8646 24.6068 56.8676 24.6024 56.8735C24.5985 56.8794 24.5966 56.8878 24.5966 56.8982V56.9546H24.5604V56.8399H24.5966V56.8567C24.6017 56.8503 24.6073 56.8453 24.6132 56.8419C24.6195 56.8386 24.6263 56.8369 24.6337 56.8369C24.6473 56.8369 24.6573 56.8414 24.6639 56.8498C24.6703 56.8577 24.6737 56.8693 24.6737 56.8844Z"
        fill="white" />
    <path
        d="M24.7676 56.8013H24.833C24.8518 56.8013 24.8664 56.806 24.8769 56.8151C24.8872 56.8238 24.8926 56.8359 24.8926 56.8517C24.8926 56.8675 24.8872 56.8799 24.8769 56.8883C24.8664 56.8969 24.8518 56.9011 24.833 56.9011H24.8066V56.9545H24.7676L24.7676 56.8013ZM24.8066 56.8299V56.8725H24.8281C24.8359 56.8725 24.8418 56.871 24.8457 56.8675C24.8501 56.8636 24.8525 56.8584 24.8525 56.8517C24.8525 56.8453 24.8501 56.8398 24.8457 56.8359C24.8418 56.8319 24.8359 56.8299 24.8281 56.8299L24.8066 56.8299Z"
        fill="white" />
    <path
        d="M25.0089 56.871C25.0054 56.8691 25.0022 56.8678 24.999 56.8671C24.9955 56.8666 24.9925 56.8661 24.9901 56.8661C24.9802 56.8661 24.9725 56.8695 24.9673 56.876C24.9626 56.8819 24.9604 56.8906 24.9604 56.9017V56.9541H24.9238V56.8394H24.9604V56.8582C24.9649 56.851 24.9703 56.8458 24.9762 56.8424C24.9827 56.8384 24.9901 56.8364 24.998 56.8364C24.9992 56.8364 25.0005 56.8369 25.0019 56.8374H25.0089V56.871Z"
        fill="white" />
    <path
        d="M25.0858 56.8636C25.078 56.8636 25.0716 56.8666 25.0673 56.8725C25.0633 56.8779 25.0614 56.8861 25.0614 56.8972C25.0614 56.9086 25.0633 56.917 25.0673 56.9229C25.0716 56.9289 25.078 56.9318 25.0858 56.9318C25.0936 56.9318 25.0995 56.9289 25.1034 56.9229C25.1078 56.917 25.1102 56.9086 25.1102 56.8972C25.1102 56.8861 25.1078 56.8779 25.1034 56.8725C25.0995 56.8666 25.0936 56.8636 25.0858 56.8636ZM25.0858 56.8369C25.1053 56.8369 25.1205 56.8426 25.1317 56.8537C25.1427 56.8644 25.1483 56.8789 25.1483 56.8972C25.1483 56.9165 25.1427 56.9313 25.1317 56.9417C25.1205 56.9524 25.1053 56.9575 25.0858 56.9575C25.0663 56.9575 25.0509 56.9524 25.0399 56.9417C25.0287 56.9313 25.0233 56.9165 25.0233 56.8972C25.0233 56.8789 25.0287 56.8644 25.0399 56.8537C25.0509 56.8426 25.0663 56.8369 25.0858 56.8369Z"
        fill="white" />
    <path
        d="M25.1732 56.8394H25.2097V56.9521C25.2097 56.9672 25.206 56.9788 25.1989 56.9867C25.1914 56.9951 25.1806 56.9996 25.1662 56.9996H25.1484V56.9749H25.1544C25.1615 56.9749 25.1665 56.9731 25.1692 56.9699C25.1717 56.9672 25.1732 56.9613 25.1732 56.9521V56.8394ZM25.1732 56.7949H25.2097V56.8246H25.1732V56.7949Z"
        fill="white" />
    <path
        d="M25.3487 56.8972V56.9071H25.2638C25.2643 56.9158 25.2672 56.9224 25.2726 56.9269C25.2777 56.9308 25.2853 56.9328 25.295 56.9328C25.3028 56.9328 25.3107 56.9318 25.3185 56.9299C25.3263 56.9274 25.3343 56.9237 25.3429 56.919V56.9477C25.3343 56.9511 25.3258 56.9533 25.3175 56.9546C25.3089 56.9566 25.3002 56.9575 25.2911 56.9575C25.2709 56.9575 25.255 56.9524 25.2433 56.9417C25.2321 56.9313 25.2267 56.9165 25.2267 56.8972C25.2267 56.8789 25.2321 56.8644 25.2433 56.8537C25.2543 56.8426 25.2696 56.8369 25.2892 56.8369C25.3072 56.8369 25.3216 56.8426 25.3321 56.8537C25.3431 56.8644 25.3487 56.8789 25.3487 56.8972ZM25.3107 56.8844C25.3107 56.8779 25.3087 56.8725 25.3048 56.8686C25.3009 56.8641 25.2955 56.8616 25.2892 56.8616C25.2819 56.8616 25.276 56.8636 25.2716 56.8676C25.2677 56.8715 25.265 56.8772 25.2638 56.8844L25.3107 56.8844Z"
        fill="white" />
    <path
        d="M25.4648 56.8438V56.8735C25.4602 56.8703 25.4553 56.8681 25.4502 56.8666C25.4455 56.8646 25.4407 56.8636 25.4355 56.8636C25.425 56.8636 25.417 56.8666 25.4111 56.8725C25.4058 56.8784 25.4033 56.8868 25.4033 56.8972C25.4033 56.9079 25.4058 56.9165 25.4111 56.9229C25.417 56.9289 25.425 56.9318 25.4355 56.9318C25.4407 56.9318 25.4458 56.9308 25.4512 56.9289C25.4563 56.9269 25.4609 56.9244 25.4648 56.921V56.9516C25.4595 56.9536 25.4541 56.9548 25.4482 56.9556C25.4424 56.9568 25.4365 56.9575 25.4307 56.9575C25.4104 56.9575 25.3945 56.9524 25.3828 56.9417C25.3711 56.9313 25.3652 56.9165 25.3652 56.8972C25.3652 56.8782 25.3711 56.8634 25.3828 56.8527C25.3945 56.8424 25.4104 56.8369 25.4307 56.8369C25.4365 56.8369 25.4424 56.8377 25.4482 56.8389C25.4541 56.8396 25.4595 56.8414 25.4648 56.8438Z"
        fill="white" />
    <path
        d="M25.5438 56.8066V56.8393H25.5809V56.866H25.5438V56.9144C25.5438 56.9199 25.5448 56.9233 25.5467 56.9253C25.5492 56.9268 25.5536 56.9273 25.5594 56.9273H25.578V56.954H25.5467C25.5331 56.954 25.5228 56.951 25.5165 56.9451C25.5106 56.9391 25.5077 56.929 25.5077 56.9144V56.866H25.4901V56.8393H25.5077V56.8066L25.5438 56.8066Z"
        fill="white" />
    <defs>
        <linearGradient id="paint0_linear_38_4824" x1="20" y1="5.45455" x2="44.7035" y2="73.4137"
            gradientUnits="userSpaceOnUse">
            <stop stop-color="#F49235" />
            <stop offset="1" stop-color="#FFB46D" />
        </linearGradient>
    </defs>
</svg>