<svg xmlns="http://www.w3.org/2000/svg" width="105" height="48" viewBox="0 0 105 48" fill="none">
    <g clip-path="url(#clip0_38_4800)">
        <path d="M7.5919 30.8785H0.55876V34.3952H7.5919V30.8785Z" fill="#BBBCC3" />
        <path d="M18.1385 30.8785H11.1097V34.3952H18.1385V30.8785Z" fill="#BBBCC3" />
        <path d="M18.1403 23.8455H0.554688V27.3622H18.1403V23.8455Z" fill="#BBBCC3" />
        <path d="M11.1095 16.8129H0.558764V20.3294H11.1095V16.8129Z" fill="#BBBCC3" />
        <path d="M18.1421 16.8129H14.6256V20.3294H18.1421V16.8129Z" fill="#BBBCC3" />
        <path
            d="M69.193 16.7929C63.5453 16.7929 60.6285 20.7868 60.6285 25.7135C60.6285 30.6404 63.4734 34.6348 69.193 34.6348C74.9126 34.6348 77.7576 30.6404 77.7576 25.7135C77.7578 20.7868 74.8405 16.7929 69.193 16.7929ZM73.4658 25.7295C73.4618 28.8976 72.3942 31.4637 69.193 31.4637C65.9918 31.4637 64.9241 28.8978 64.9207 25.7295V25.7137C64.9241 22.5458 65.992 19.9799 69.1933 19.9799C72.3942 19.9799 73.4618 22.5458 73.4658 25.7137V25.7217C73.4658 25.7244 73.4658 25.7268 73.4658 25.7295Z"
            fill="#BBBCC3" />
        <path
            d="M43.9051 34.3949V9.73066C43.9051 9.73066 47.1582 9.26856 47.4105 9.23462C47.6962 9.19602 48.0755 9.39945 48.0755 9.80165V18.9448C48.7506 18.303 49.494 17.7856 50.3042 17.3914C51.115 16.9976 52.0659 16.8004 53.1582 16.8004C54.104 16.8004 54.9419 16.9608 55.6735 17.2818C56.4056 17.6022 57.0163 18.0529 57.5059 18.6322C57.9956 19.2123 58.3671 19.9045 58.6205 20.7093C58.8736 21.5142 59.0003 22.4007 59.0003 23.3688V34.3947H54.8296V23.3688C54.8296 22.3108 54.5847 21.4918 54.0951 20.9116C53.6052 20.3322 52.8707 20.0422 51.8911 20.0422C51.1707 20.0422 50.4957 20.2055 49.8656 20.5323C49.2349 20.8588 48.6384 21.303 48.0755 21.8662V34.3949H43.9051Z"
            fill="#BBBCC3" />
        <path
            d="M99.5839 34.6324C96.7139 34.6324 94.9152 32.9622 94.9152 29.8461V20.6112H91.6807C91.6807 20.6112 92.3682 18.2335 92.4226 18.0462C92.4771 17.8592 92.6193 17.6582 92.9049 17.6185C93.1904 17.5788 94.9112 17.3388 94.9112 17.3388L95.7061 12.282C95.7061 12.282 98.0414 11.9528 98.4117 11.8976C98.7613 11.8452 99.0783 12.097 99.0783 12.4779V17.3388H103.169V20.6112H99.0783V29.7217C99.0783 30.9656 99.8357 31.441 100.562 31.441C101.005 31.441 101.613 31.2054 102.066 30.9951C102.347 30.8655 102.781 30.9616 102.893 31.3527C102.992 31.6992 103.519 33.5385 103.519 33.5385C103.064 33.8323 101.626 34.6324 99.5839 34.6324Z"
            fill="#BBBCC3" />
        <path
            d="M89.3898 20.6663C88.577 20.4023 87.0492 19.9797 85.5959 19.9797C84.115 19.9797 82.9499 20.4913 82.9499 21.7225C82.9499 23.2604 85.461 23.708 87.1798 24.335C88.329 24.754 91.4106 25.5711 91.4106 28.8855C91.4106 32.9115 88.0672 34.6328 84.5006 34.6328C80.9336 34.6328 78.8263 33.3062 78.8263 33.3062C78.8263 33.3062 79.3795 31.3517 79.4916 30.9659C79.593 30.6187 79.9965 30.4969 80.2536 30.5957C81.1716 30.9495 82.8292 31.4413 84.7029 31.4413C86.5999 31.4413 87.5177 30.8621 87.5177 29.6273C87.5177 27.9839 84.9561 27.4816 83.2618 26.9472C82.0947 26.5794 79.0055 25.7215 79.0055 22.0764C79.0055 18.4856 82.1586 16.8009 85.5284 16.8009C88.3809 16.8009 89.7801 17.3975 90.8252 17.9299C90.8252 17.9299 90.2428 19.9595 90.1563 20.2619C90.0543 20.6213 89.7594 20.7861 89.3898 20.6663Z"
            fill="#BBBCC3" />
        <path
            d="M42.2777 17.3954C42.2777 17.0069 41.9458 16.7846 41.6293 16.8208C40.2296 16.9812 39.2311 17.6398 38.5851 18.253C37.3166 17.2591 35.5558 16.7846 33.5796 16.7846C29.6175 16.7846 26.5219 18.6969 26.5219 22.8667C26.5219 25.2604 27.5408 26.9098 29.1589 27.8808C27.9572 28.4497 27.1568 29.6567 27.1568 30.8434C27.1568 32.8284 28.725 33.45 28.725 33.45C28.725 33.45 25.983 34.7809 25.983 37.4435C25.983 40.8519 29.1197 42.23 32.9525 42.23C38.4773 42.23 42.2784 39.9481 42.2784 35.7581C42.2784 33.1794 40.3051 31.7558 36.0048 31.5865C33.453 31.4858 31.8 31.394 31.3905 31.2584C30.8494 31.0787 30.5834 30.6455 30.5834 30.1672C30.5834 29.6392 31.0171 29.1365 31.7008 28.7913C32.2971 28.8969 32.9265 28.949 33.5801 28.949C37.5455 28.949 40.6381 27.0423 40.6381 22.8669C40.6381 21.8544 40.4553 20.9755 40.1229 20.2245C40.7055 19.9137 41.4223 19.695 42.2782 19.695C42.2782 19.695 42.2777 17.7496 42.2777 17.3954ZM31.3587 34.4168C31.3587 34.4168 33.4394 34.4956 35.5186 34.5919C37.8544 34.6999 38.5822 35.2033 38.5822 36.4128C38.5822 37.8905 36.5523 39.3278 33.7156 39.3278C31.0229 39.3278 29.6778 38.391 29.6778 36.8312C29.6778 35.9362 30.1504 34.9351 31.3587 34.4168ZM33.5872 26.0384C31.7101 26.0384 30.2457 25.0415 30.2457 22.8667C30.2457 20.6917 31.7115 19.6948 33.5872 19.6948C35.4631 19.6948 36.9286 20.6891 36.9286 22.8667C36.9286 25.0443 35.4649 26.0384 33.5872 26.0384Z"
            fill="#BBBCC3" />
    </g>
    <defs>
        <clipPath id="clip0_38_4800">
            <rect width="104" height="48" fill="white" transform="translate(0.5)" />
        </clipPath>
    </defs>
</svg>