<svg xmlns="http://www.w3.org/2000/svg" width="80" height="80" viewBox="0 0 80 80" fill="none">
    <circle cx="40" cy="40" r="40" fill="url(#paint0_linear_38_4927)" />
    <path
        d="M32.4034 35.0667C32.3631 35.0262 32.2019 34.8645 31.96 34.7432C31.5973 34.5815 30.9928 34.5411 30.5495 34.9049C30.0659 35.2688 30.0659 35.8753 30.0659 35.9561C30.0659 36.603 30.5092 37.0882 30.751 37.3308C31.7989 38.4224 32.8467 39.5141 33.8946 40.6057C34.0558 40.9696 34.0155 41.3739 33.7737 41.5761C33.5722 41.7378 33.2498 41.8187 33.0483 41.6569L32.9273 41.5357C31.5168 40.0801 30.1062 38.5841 28.6955 37.1286C27.8492 36.2392 27.567 35.3902 27.4864 35.2284C26.8819 34.0559 26.5595 33.0048 26.5192 32.8431C26.237 31.8727 25.8743 30.9428 25.5519 30.0129C25.5519 29.8916 25.431 29.6894 25.2295 29.4873C24.7861 29.083 24.101 29.0426 23.577 29.4469C23.5367 29.4469 23.4964 29.4873 23.4964 29.4873C23.2143 29.7299 23.0934 30.0938 23.0128 30.4172C22.9322 30.8215 23.2546 31.5492 23.3755 31.9535C23.8591 33.4495 24.3428 34.905 24.7861 36.4009L25.7533 38.9076C25.9548 39.4332 26.2773 39.9185 26.64 40.3227L30.6299 44.5275C30.912 44.8105 31.436 45.3765 31.6778 46.3873C31.839 46.9938 31.7987 47.5599 31.7584 47.9237C33.5721 49.4197 35.3856 51.0369 37.1992 52.6137C38.3277 49.177 39.7786 43.3548 37.8038 40.4437C37.7231 40.3224 37.6022 40.0799 37.4007 39.8777C35.7886 38.0583 34.0959 36.8454 32.4032 35.0665L32.4034 35.0667Z"
        fill="white" />
    <path d="M36.353 53.8261L31.1942 49.2573L30.4688 50.0255L35.1842 54.9985L36.353 53.8261Z" fill="white" />
    <path
        d="M49.3684 37.3305C49.6103 37.0879 50.0536 36.6028 50.0536 35.9559C50.0536 35.875 50.0536 35.2685 49.57 34.9047C49.1266 34.5408 48.5221 34.5812 48.1191 34.7429C47.8772 34.8642 47.716 35.0259 47.6757 35.0664C45.983 36.8453 44.2903 38.0583 42.5976 39.8776C42.3961 40.0798 42.2752 40.3224 42.1946 40.4436C40.2197 43.3951 41.6706 49.1767 42.7991 52.6136C44.6128 51.0368 46.4263 49.46 48.2399 47.9236C48.1996 47.5597 48.1593 46.9937 48.3205 46.3872C48.5623 45.4169 49.0863 44.8105 49.3684 44.5274L53.3583 40.3226C53.7614 39.9183 54.0435 39.4331 54.245 38.9075L55.2123 36.4008C55.6556 34.9048 56.1795 33.4493 56.6228 31.9534C56.7437 31.5491 57.0661 30.8618 56.9855 30.4171C56.9049 30.0936 56.7437 29.7297 56.5019 29.4872C56.5019 29.4468 56.4616 29.4468 56.4213 29.4063C55.8571 29.002 55.172 29.0425 54.7688 29.4468C54.5673 29.6489 54.4867 29.8511 54.4464 29.9724C54.124 30.9022 53.7613 31.8322 53.4791 32.8025C53.4388 32.9643 53.1164 34.0155 52.5119 35.1879C52.4313 35.3901 52.1492 36.1987 51.3028 37.0881C49.8922 38.5436 48.4816 40.0396 47.071 41.4951C47.0307 41.5356 47.0307 41.576 46.95 41.6164C46.7485 41.7781 46.3858 41.6973 46.2246 41.5356C45.9828 41.3334 45.9425 40.9291 46.1037 40.5652C47.2725 39.514 48.3203 38.4223 49.3683 37.3307L49.3684 37.3305Z"
        fill="white" />
    <path d="M48.9263 49.2583L43.7676 53.827L44.9364 54.9996L49.6519 50.0266L48.9263 49.2583Z" fill="white" />
    <path
        d="M42.6388 25C41.6716 25 40.7043 25.6065 39.9386 26.3343C39.1728 25.6065 38.2056 25 37.2383 25C36.9965 25 35.5859 25.0404 34.5784 26.1321C33.2483 27.5471 33.6111 29.5687 33.6514 29.9326C34.3366 33.9352 39.5356 36.6845 39.979 37.0484C40.5836 36.725 46.0647 33.7735 46.3066 29.4879C46.3469 28.7601 46.4275 27.2642 45.3797 26.1322C44.3318 25.0406 42.8809 25.0001 42.6391 25.0001L42.6388 25ZM42.8 31.4285H40.6237V33.6117H39.5758V31.4285H37.3995V30.3773H39.5758V28.194H40.6237V30.3773H42.8V31.4285Z"
        fill="white" />
    <defs>
        <linearGradient id="paint0_linear_38_4927" x1="23.1818" y1="10" x2="49.2079" y2="73.4018"
            gradientUnits="userSpaceOnUse">
            <stop stop-color="#FF7999" />
            <stop offset="1" stop-color="#FFBDCC" />
        </linearGradient>
    </defs>
</svg>