<svg width="57" height="66" viewBox="0 0 57 66" fill="none" xmlns="http://www.w3.org/2000/svg">
<path id="Ellipse 3459" d="M55.4813 53.0773C56.6588 54.1289 56.7689 55.9463 55.6193 57.0285C52.4353 60.0257 48.68 62.3671 44.5669 63.9064C39.5592 65.7806 34.1711 66.4098 28.8664 65.7401C23.5616 65.0703 18.4991 63.1216 14.1143 60.0616C9.72965 57.0017 6.15415 52.9221 3.69556 48.174C1.23697 43.4259 -0.0310639 38.1515 0.000577843 32.8047C0.0322196 27.4579 1.36259 22.1989 3.8772 17.4802C6.39181 12.7616 10.0153 8.72461 14.436 5.71674C18.0669 3.24617 22.1463 1.53066 26.4316 0.660298C27.9788 0.346058 29.3994 1.48485 29.5786 3.05341C29.7579 4.62197 28.6264 6.02381 27.0851 6.36608C23.7193 7.11356 20.5169 8.49428 17.6522 10.4435C13.9974 12.9303 11.0016 16.2679 8.92269 20.169C6.84373 24.0702 5.74385 28.4181 5.71769 32.8385C5.69153 37.259 6.73988 41.6196 8.77252 45.5451C10.8052 49.4706 13.7612 52.8434 17.3863 55.3732C21.0113 57.9031 25.1968 59.5142 29.5825 60.0679C33.9682 60.6216 38.4228 60.1014 42.5629 58.5519C45.8081 57.3374 48.7839 55.519 51.3369 53.2017C52.5059 52.1406 54.3037 52.0257 55.4813 53.0773Z" fill="#0089FE"/>
</svg>
