<svg width="51" height="51" viewBox="0 0 51 51" fill="none" xmlns="http://www.w3.org/2000/svg">
<g id="Group 1000003796">
<circle id="Ellipse 3439" cx="25.274" cy="25.6944" r="24.8365" fill="#1663F9"/>
<g id="p">
<path d="M22.3984 20.2631V18.6315H20.1016V35.0078H22.3984V28.1189C23.1237 28.985 24.4333 29.9116 26.2667 29.9116C29.1881 29.9116 31.4849 27.5549 31.4849 24.1306C31.4849 20.7062 29.1881 18.4502 26.2667 18.4502C24.4534 18.4502 23.1036 19.3365 22.3984 20.2631ZM29.1478 24.1306C29.1478 26.5276 27.4957 27.9175 25.763 27.9175C24.0505 27.9175 22.3984 26.5679 22.3984 24.1708C22.3984 21.794 24.0505 20.4444 25.763 20.4444C27.4957 20.4444 29.1478 21.7335 29.1478 24.1306Z" fill="white"/>
</g>
</g>
</svg>
