<svg xmlns="http://www.w3.org/2000/svg" width="112" height="30" viewBox="0 0 112 30" fill="none">
    <path fill-rule="evenodd" clip-rule="evenodd"
        d="M10.8963 1.26498C9.32886 1.26616 8.06031 2.55265 8.06147 4.13791C8.06031 5.72317 9.33002 7.00966 10.8975 7.01084H13.7334V4.13908C13.7346 2.55382 12.4649 1.26733 10.8963 1.26498C10.8975 1.26498 10.8975 1.26498 10.8963 1.26498ZM10.8963 8.92768H3.33599C1.76855 8.92885 0.498845 10.2153 0.500003 11.8006C0.497686 13.3859 1.76739 14.6724 3.33483 14.6747H10.8963C12.4637 14.6735 13.7334 13.387 13.7323 11.8018C13.7334 10.2153 12.4637 8.92885 10.8963 8.92768Z"
        fill="#BBBCC4" />
    <path fill-rule="evenodd" clip-rule="evenodd"
        d="M28.8552 11.8005C28.8563 10.2153 27.5866 8.92879 26.0192 8.92762C24.4517 8.92879 23.182 10.2153 23.1832 11.8005V14.6746H26.0192C27.5866 14.6735 28.8563 13.387 28.8552 11.8005ZM21.2937 11.8005V4.13785C21.2949 2.55376 20.0263 1.26727 18.4589 1.26493C16.8914 1.2661 15.6217 2.55259 15.6229 4.13785V11.8005C15.6206 13.3858 16.8903 14.6723 18.4577 14.6746C20.0252 14.6735 21.2949 13.387 21.2937 11.8005Z"
        fill="#BBBCC4" />
    <path fill-rule="evenodd" clip-rule="evenodd"
        d="M18.4577 29.9999C20.0251 29.9988 21.2948 28.7123 21.2937 27.127C21.2948 25.5417 20.0251 24.2553 18.4577 24.2541H15.6217V27.127C15.6205 28.7111 16.8902 29.9976 18.4577 29.9999ZM18.4577 22.3361H26.0192C27.5866 22.3349 28.8563 21.0484 28.8551 19.4631C28.8575 17.8779 27.5878 16.5914 26.0203 16.589H18.4588C16.8914 16.5902 15.6217 17.8767 15.6229 19.462C15.6217 21.0484 16.8902 22.3349 18.4577 22.3361Z"
        fill="#BBBCC4" />
    <path fill-rule="evenodd" clip-rule="evenodd"
        d="M0.500266 19.4632C0.499108 21.0485 1.76881 22.335 3.33625 22.3361C4.90369 22.335 6.17339 21.0485 6.17223 19.4632V16.5903H3.33625C1.76881 16.5914 0.499108 17.8779 0.500266 19.4632ZM8.06173 19.4632V27.1259C8.05942 28.7112 9.32912 29.9977 10.8966 30C12.464 29.9988 13.7337 28.7123 13.7325 27.1271V19.4655C13.7349 17.8803 12.4652 16.5938 10.8977 16.5914C9.32912 16.5914 8.06057 17.8779 8.06173 19.4632Z"
        fill="#BBBCC4" />
    <path
        d="M37.1849 20.8631L39.8728 19.2767C41.0543 21.0327 42.5902 21.9107 44.4806 21.9107C45.406 21.9107 46.1346 21.7311 46.6663 21.372C47.2176 20.9928 47.4933 20.4939 47.4933 19.8753C47.4933 19.3764 47.2669 18.9374 46.814 18.5583C46.3808 18.1791 45.918 17.8998 45.4257 17.7202C44.9335 17.5206 44.195 17.2612 43.2105 16.9419C43.0332 16.8821 42.9052 16.8421 42.8265 16.8222C42.1176 16.5827 41.517 16.3532 41.0247 16.1337C40.5521 15.8943 40.05 15.585 39.5183 15.2058C38.9867 14.8067 38.583 14.3178 38.3073 13.7391C38.0316 13.1405 37.8938 12.452 37.8938 11.6738C37.8938 10.1572 38.5239 8.9399 39.7842 8.02197C41.0444 7.10403 42.6099 6.64506 44.4806 6.64506C45.8786 6.64506 47.198 7.02421 48.4385 7.78251C49.6791 8.52085 50.6046 9.46872 51.215 10.6261L48.7339 12.1527C47.5721 10.5363 46.1642 9.72813 44.5101 9.72813C43.6043 9.72813 42.9052 9.91771 42.413 10.2969C41.9404 10.656 41.7041 11.135 41.7041 11.7336C41.7041 12.2325 41.9108 12.6815 42.3244 13.0806C42.7576 13.4597 43.2006 13.7391 43.6535 13.9187C44.1064 14.0983 44.7464 14.3278 45.5734 14.6072C45.79 14.667 45.9476 14.7169 46.046 14.7568C49.5511 15.8943 51.3036 17.6104 51.3036 19.9053C51.3036 21.3221 50.7129 22.5294 49.5314 23.5271C48.3696 24.5049 46.7155 24.9938 44.5692 24.9938C42.9151 24.9938 41.4382 24.6246 40.1386 23.8863C38.8587 23.148 37.8741 22.1402 37.1849 20.8631Z"
        fill="#BBBCC4" />
    <path d="M54.5527 24.455V0H58.2743V24.455H54.5527Z" fill="#BBBCC4" />
    <path
        d="M65.4223 19.6059C65.4223 20.2445 65.6684 20.7833 66.1607 21.2223C66.6727 21.6414 67.3422 21.8509 68.1692 21.8509C69.3507 21.8509 70.355 21.4518 71.182 20.6536C72.0287 19.8554 72.4521 18.8077 72.4521 17.5106V15.9242C71.5463 16.1437 70.4534 16.3532 69.1735 16.5528C66.6727 16.9519 65.4223 17.9696 65.4223 19.6059ZM61.6415 19.9352C61.6415 16.6825 64.0242 14.697 68.7895 13.9786C70.5223 13.7192 71.7432 13.4797 72.4521 13.2602V12.3323C72.4521 11.4942 72.1567 10.8356 71.566 10.3567C70.9752 9.8778 70.1876 9.63833 69.203 9.63833C67.3323 9.63833 65.7177 10.4166 64.3589 11.9731L62.0846 9.99753C62.9707 8.9399 64.0242 8.12174 65.2451 7.54304C66.4856 6.94439 67.7852 6.64506 69.1439 6.64506C71.6841 6.64506 73.4957 7.27365 74.5788 8.53082C75.6618 9.76804 76.2033 11.5041 76.2033 13.7391V24.455H72.5702V22.2999C72.2158 23.0382 71.5955 23.6768 70.7094 24.2156C69.843 24.7344 68.819 24.9938 67.6376 24.9938C65.7669 24.9938 64.2999 24.5249 63.2365 23.587C62.1732 22.6491 61.6415 21.4318 61.6415 19.9352Z"
        fill="#BBBCC4" />
    <path
        d="M79.0684 15.8344C79.0684 13.0606 79.797 10.8356 81.2541 9.15941C82.731 7.48318 84.6312 6.64506 86.9548 6.64506C88.6482 6.64506 90.0758 7.1639 91.2376 8.20156C92.3994 9.23923 93.128 10.4266 93.4234 11.7636L90.2334 12.6615C89.9971 11.9032 89.5934 11.2547 89.0223 10.7159C88.4513 10.1572 87.7719 9.8778 86.9843 9.8778C85.7044 9.8778 84.7001 10.4465 83.9715 11.584C83.2626 12.7214 82.9082 14.1382 82.9082 15.8344C82.9082 17.7102 83.2922 19.1669 84.0601 20.2046C84.8281 21.2422 85.8028 21.7611 86.9843 21.7611C87.8507 21.7611 88.6088 21.4618 89.2586 20.8631C89.9281 20.2445 90.3909 19.5461 90.6469 18.7678L93.8369 19.6957C93.4627 21.0926 92.6456 22.3298 91.3853 23.4074C90.1251 24.465 88.6482 24.9938 86.9548 24.9938C84.6312 24.9938 82.731 24.1657 81.2541 22.5094C79.797 20.8332 79.0684 18.6082 79.0684 15.8344Z"
        fill="#BBBCC4" />
    <path
        d="M96.6429 24.455V0H100.365V14.0684L106.42 7.18385H111.116L104.825 14.218L111.5 24.455H107.129L102.403 16.8821L100.365 19.1569V24.455H96.6429Z"
        fill="#BBBCC4" />
</svg>