<svg width="28" height="28" viewBox="0 0 28 28" fill="none" xmlns="http://www.w3.org/2000/svg">
<g id="Group 3587">
<circle id="Ellipse 2663" cx="14" cy="14" r="14" fill="#FF7999"/>
<path id="Vector" d="M14.8972 19.4003V17.2735C14.8972 16.9849 15.1344 16.7512 15.4268 16.7512C16.4701 16.7512 17.0377 15.6958 17.1165 13.6124H15.4268C15.1344 13.6124 14.8972 13.3783 14.8972 13.0901V8.59929C14.8972 8.31083 15.1344 8.0771 15.4268 8.0771H19.9318C20.2241 8.0771 20.4614 8.31108 20.4614 8.59929V13.0901C20.4614 14.0888 20.3592 15.0052 20.1585 15.8145C19.9524 16.6442 19.636 17.3695 19.2183 17.9706C18.7887 18.5884 18.2509 19.0731 17.6207 19.4107C16.9857 19.7504 16.2476 19.9228 15.4266 19.9228C15.1344 19.9226 14.8972 19.6886 14.8972 19.4003ZM8.06776 16.751C7.77541 16.751 7.53833 16.9849 7.53833 17.2731V19.4003C7.53833 19.6886 7.77541 19.9224 8.06776 19.9224C8.88836 19.9224 9.62685 19.75 10.2614 19.4103C10.892 19.0727 11.4297 18.5884 11.8593 17.9702C12.2772 17.3691 12.5936 16.6437 12.7997 15.8137C13.0005 15.0043 13.1025 14.0879 13.1025 13.0897V8.59885C13.1025 8.31039 12.8652 8.07666 12.5729 8.07666H8.06776C7.77541 8.07666 7.53833 8.31061 7.53833 8.59885V13.0897C7.53833 13.3781 7.77541 13.612 8.06776 13.612H9.73376C9.65595 15.6956 9.09653 16.751 8.06776 16.751Z" fill="white"/>
</g>
</svg>
