<svg xmlns="http://www.w3.org/2000/svg" width="375" height="478" viewBox="0 0 375 478" fill="none">
    <g filter="url(#filter0_d_144_1476)">
        <rect x="66.1936" y="121.36" width="212.256" height="226.204" rx="8.2043" fill="white" />
    </g>
    <rect x="82.2588" y="162.286" width="178.315" height="46.7168" rx="3.22312" fill="white" stroke="#F6F6F8"
        stroke-width="0.586021" />
    <rect x="133.513" y="178.367" width="73.3799" height="4.24512" rx="2.12256" fill="#B3BAC5" />
    <rect x="132.3" y="189.889" width="81.8702" height="4.24512" rx="2.12256" fill="#EFF1F3" />
    <circle cx="246.917" cy="181.398" r="1.21289" fill="#7A7A9D" />
    <circle cx="246.917" cy="185.644" r="1.21289" fill="#7A7A9D" />
    <circle cx="246.917" cy="189.889" r="1.21289" fill="#7A7A9D" />
    <circle cx="105.618" cy="185.644" r="14.5547" fill="#1663F9" />
    <path
        d="M103.932 182.461V181.505H102.586V191.102H103.932V187.065C104.357 187.573 105.125 188.116 106.199 188.116C107.911 188.116 109.257 186.734 109.257 184.728C109.257 182.721 107.911 181.399 106.199 181.399C105.137 181.399 104.346 181.918 103.932 182.461ZM107.888 184.728C107.888 186.132 106.92 186.947 105.904 186.947C104.901 186.947 103.932 186.156 103.932 184.751C103.932 183.358 104.901 182.568 105.904 182.568C106.92 182.568 107.888 183.323 107.888 184.728Z"
        fill="white" />
    <circle cx="118.354" cy="194.134" r="6.6709" fill="#FEDA30" />
    <path
        d="M118.353 191.708L119.137 193.055L120.66 193.385L119.622 194.547L119.779 196.097L118.353 195.468L116.927 196.097L117.084 194.547L116.046 193.385L117.569 193.055L118.353 191.708Z"
        fill="white" />
    <rect x="81.0457" y="223.537" width="178.315" height="46.7168" rx="3.22312" fill="white" stroke="#F6F6F8"
        stroke-width="0.586021" />
    <rect x="132.3" y="239.617" width="73.3799" height="4.24512" rx="2.12256" fill="#B3BAC5" />
    <rect x="131.086" y="251.14" width="81.8702" height="4.24512" rx="2.12256" fill="#EFF1F3" />
    <circle cx="245.708" cy="242.65" r="1.21289" fill="#7A7A9D" />
    <circle cx="245.708" cy="246.895" r="1.21289" fill="#7A7A9D" />
    <circle cx="245.708" cy="251.14" r="1.21289" fill="#7A7A9D" />
    <circle cx="104.404" cy="246.895" r="14.5547" fill="#1663F9" />
    <path
        d="M102.719 243.106V242.15H101.373V251.747H102.719V247.71C103.144 248.217 103.912 248.76 104.986 248.76C106.698 248.76 108.044 247.379 108.044 245.372C108.044 243.366 106.698 242.043 104.986 242.043C103.924 242.043 103.133 242.563 102.719 243.106ZM106.675 245.372C106.675 246.777 105.706 247.591 104.691 247.591C103.687 247.591 102.719 246.801 102.719 245.396C102.719 244.003 103.687 243.212 104.691 243.212C105.706 243.212 106.675 243.968 106.675 245.372Z"
        fill="white" />
    <circle cx="117.137" cy="255.386" r="6.6709" fill="#FEDA30" />
    <path
        d="M117.136 252.959L117.948 254.267L119.443 254.636L118.451 255.813L118.561 257.348L117.136 256.768L115.71 257.348L115.82 255.813L114.828 254.636L116.323 254.267L117.136 252.959Z"
        fill="white" />
    <rect x="79.8233" y="284.787" width="178.315" height="46.7168" rx="3.22312" fill="white" stroke="#F6F6F8"
        stroke-width="0.586021" />
    <rect x="131.077" y="300.869" width="73.3799" height="4.24512" rx="2.12256" fill="#B3BAC5" />
    <rect x="129.864" y="312.391" width="81.8702" height="4.24512" rx="2.12256" fill="#EFF1F3" />
    <circle cx="244.481" cy="303.9" r="1.21289" fill="#7A7A9D" />
    <circle cx="244.481" cy="308.146" r="1.21289" fill="#7A7A9D" />
    <circle cx="244.481" cy="312.391" r="1.21289" fill="#7A7A9D" />
    <circle cx="103.186" cy="308.146" r="14.5547" fill="#1663F9" />
    <path
        d="M101.502 304.356V303.4H100.156V312.997H101.502V308.96C101.927 309.468 102.694 310.011 103.768 310.011C105.48 310.011 106.826 308.629 106.826 306.623C106.826 304.616 105.48 303.294 103.768 303.294C102.706 303.294 101.915 303.813 101.502 304.356ZM105.457 306.623C105.457 308.027 104.489 308.842 103.473 308.842C102.47 308.842 101.502 308.051 101.502 306.646C101.502 305.253 102.47 304.463 103.473 304.463C104.489 304.463 105.457 305.218 105.457 306.623Z"
        fill="white" />
    <circle cx="115.919" cy="316.635" r="6.6709" fill="#FEDA30" />
    <path
        d="M115.918 314.21L116.702 315.556L118.225 315.886L117.187 317.048L117.344 318.598L115.918 317.97L114.492 318.598L114.649 317.048L113.611 315.886L115.134 315.556L115.918 314.21Z"
        fill="white" />
    <rect x="115.927" y="138.341" width="96.4249" height="4.24512" rx="2.12256" fill="#B3BAC5" />
    <circle cx="86.8174" cy="139.554" r="4.85157" fill="#FC5230" />
    <circle cx="103.189" cy="139.554" r="4.85157" fill="#EFF1F3" />
    <defs>
        <filter id="filter0_d_144_1476" x="-59.215" y="0.639924" width="463.073" height="477.022"
            filterUnits="userSpaceOnUse" color-interpolation-filters="sRGB">
            <feFlood flood-opacity="0" result="BackgroundImageFix" />
            <feColorMatrix in="SourceAlpha" type="matrix" values="0 0 0 0 0 0 0 0 0 0 0 0 0 0 0 0 0 0 127 0"
                result="hardAlpha" />
            <feOffset dy="4.68817" />
            <feGaussianBlur stdDeviation="62.7043" />
            <feComposite in2="hardAlpha" operator="out" />
            <feColorMatrix type="matrix" values="0 0 0 0 0.65 0 0 0 0 0.65 0 0 0 0 0.65 0 0 0 0.25 0" />
            <feBlend mode="normal" in2="BackgroundImageFix" result="effect1_dropShadow_144_1476" />
            <feBlend mode="normal" in="SourceGraphic" in2="effect1_dropShadow_144_1476" result="shape" />
        </filter>
    </defs>
</svg>