<svg xmlns="http://www.w3.org/2000/svg" width="150" height="30" viewBox="0 0 150 30" fill="none">
    <path
        d="M43.4274 16.2567C44.1909 15.5768 44.7067 14.5672 44.9956 13.2073C45.0782 12.7334 45.14 12.2183 45.14 11.6826C45.14 11.0851 45.0162 10.4463 44.7686 9.80758C44.4591 9.00401 44.0464 8.57132 43.5512 8.4683C42.8084 8.32407 42.0862 8.73616 41.4053 9.74577C40.8481 10.5287 40.4973 11.3529 40.3116 12.1977C40.2085 12.6716 40.1672 13.1867 40.1672 13.7018C40.1672 14.2993 40.291 14.9381 40.5386 15.5768C40.8481 16.3804 41.2608 16.8131 41.756 16.9161C42.2719 17.0191 42.829 16.7925 43.4274 16.2567Z"
        fill="#BBBCC4" />
    <path
        d="M32.0583 13.2073C31.7694 14.5672 31.2536 15.5768 30.4901 16.2567C29.8917 16.7925 29.3346 17.0191 28.8187 16.9161C28.3235 16.8131 27.9108 16.3804 27.6013 15.5768C27.3537 14.9381 27.2299 14.2993 27.2299 13.7018C27.2299 13.1867 27.2712 12.6716 27.3743 12.1977C27.5601 11.3529 27.9108 10.5287 28.468 9.74577C29.1489 8.73616 29.8711 8.32407 30.6139 8.4683C31.1091 8.57132 31.5218 9.00401 31.8313 9.80758C32.079 10.4463 32.2028 11.0851 32.2028 11.6826C32.2028 12.2183 32.1615 12.7334 32.0583 13.2073Z"
        fill="#BBBCC4" />
    <path fill-rule="evenodd" clip-rule="evenodd"
        d="M5.39885 0H46.4816C49.0815 0 51.1862 2.10164 51.1862 4.69778V20.3571C51.1862 22.9532 49.0815 25.0549 46.4816 25.0549H31.7488L33.7709 29.9999L24.8776 25.0549H5.41948C2.81957 25.0549 0.714872 22.9532 0.714872 20.3571V4.69778C0.694238 2.12224 2.79893 0 5.39885 0ZM3.23228 4.26499C3.52116 3.87351 3.95448 3.66746 4.53224 3.62625C5.58458 3.54383 6.18297 4.03834 6.32741 5.10977C6.96708 9.41607 7.66864 13.063 8.41147 16.0507L12.9304 7.45866C13.3431 6.67569 13.8589 6.26361 14.4779 6.2224C15.3858 6.16059 15.943 6.7375 16.1699 7.95316C16.6858 10.6935 17.3461 13.0218 18.1302 14.9998C18.6667 9.76634 19.5746 5.99575 20.8539 3.66746C21.1634 3.09054 21.6174 2.80208 22.2158 2.76087C22.6904 2.71967 23.1237 2.8639 23.5157 3.17296C23.9078 3.48203 24.1141 3.8735 24.1554 4.3474C24.176 4.71828 24.1141 5.02735 23.9491 5.33641C23.1443 6.81993 22.484 9.31305 21.9475 12.7746C21.4317 16.1331 21.246 18.7498 21.3698 20.6248C21.411 21.1399 21.3285 21.5932 21.1222 21.9847C20.8746 22.438 20.5031 22.6853 20.0286 22.7265C19.4921 22.7677 18.9349 22.5204 18.3984 21.9641C16.4795 20.0067 14.9525 17.0809 13.8383 13.1867C12.4971 15.824 11.5066 17.802 10.8669 19.1207C9.64953 21.449 8.61782 22.644 7.75118 22.7059C7.19406 22.7471 6.71947 22.2732 6.30678 21.2842C5.25444 18.585 4.11955 13.3721 2.90213 5.64548C2.84023 5.10977 2.9434 4.63587 3.23228 4.26499ZM47.5955 7.4999C46.8527 6.20183 45.7591 5.41886 44.294 5.1098C43.902 5.02738 43.5306 4.98617 43.1798 4.98617C41.1989 4.98617 39.5894 6.01639 38.3307 8.07682C37.2578 9.82819 36.7213 11.765 36.7213 13.8872C36.7213 15.4738 37.0514 16.8337 37.7117 17.9669C38.4546 19.265 39.5482 20.0479 41.0132 20.357C41.4053 20.4394 41.7767 20.4806 42.1274 20.4806C44.129 20.4806 45.7384 19.4504 46.9765 17.39C48.0495 15.618 48.586 13.6812 48.586 11.559C48.586 9.95181 48.2558 8.61253 47.5955 7.4999ZM31.3568 5.1098C32.8012 5.41886 33.9154 6.20183 34.6582 7.4999C35.3185 8.61253 35.6487 9.95181 35.6487 11.559C35.6487 13.6812 35.1122 15.618 34.0392 17.39C32.8012 19.4504 31.1917 20.4806 29.1902 20.4806C28.8394 20.4806 28.468 20.4394 28.0759 20.357C26.6109 20.0479 25.5173 19.265 24.7744 17.9669C24.1141 16.8337 23.784 15.4738 23.784 13.8872C23.784 11.765 24.3205 9.82819 25.3935 8.07682C26.6522 6.01639 28.2616 4.98617 30.2425 4.98617C30.5933 4.98617 30.9647 5.02738 31.3568 5.1098Z"
        fill="#BBBCC4" />
    <path
        d="M54.3433 12.507C54.3433 10.4054 55.0242 8.67462 56.4067 7.31474C57.7892 5.95485 59.5225 5.2749 61.6272 5.29551C62.4319 5.29551 63.1954 5.37793 63.8763 5.56337V8.90127C63.1335 8.69522 62.4525 8.5922 61.8129 8.5922C60.8224 8.5922 60.0177 8.96308 59.3574 9.72544C58.7177 10.4672 58.3876 11.4356 58.3876 12.61C58.3876 13.8669 58.7177 14.8559 59.378 15.5977C60.0383 16.3188 60.905 16.6897 61.9986 16.6897C62.5351 16.6897 63.1541 16.5867 63.8763 16.3806V19.7185C63.0922 19.9452 62.37 20.0482 61.7303 20.0482C59.5225 20.0482 57.7479 19.3477 56.3861 17.9672C55.0242 16.5867 54.3433 14.7529 54.3433 12.507Z"
        fill="#BBBCC4" />
    <path fill-rule="evenodd" clip-rule="evenodd"
        d="M66.2699 7.1705C67.3428 5.91364 68.8285 5.2749 70.7268 5.2749C72.749 5.2749 74.2966 5.91364 75.3902 7.1705C76.4632 8.44797 76.9997 10.2612 76.9997 12.61C76.9997 14.9589 76.4632 16.7927 75.4108 18.0908C74.3585 19.3889 72.8522 20.0482 70.8919 20.0482C68.8698 20.0482 67.3222 19.3889 66.2699 18.0908C65.2175 16.7927 64.681 14.9177 64.681 12.4658C64.681 10.1993 65.1969 8.42737 66.2699 7.1705ZM70.7268 16.8545C71.4284 16.8545 71.9855 16.5661 72.357 15.9892C72.7284 15.4122 72.9347 14.2584 72.9553 12.5688C72.9553 9.82846 72.2125 8.46857 70.7681 8.46857C69.3856 8.46857 68.7047 9.80786 68.7047 12.507C68.7047 14.2584 68.8698 15.4122 69.2206 15.9892C69.5713 16.5661 70.0665 16.8545 70.7268 16.8545Z"
        fill="#BBBCC4" />
    <path
        d="M86.4501 8.81885L87.193 5.66639H92.1039L94.0023 19.6979H90.2468L89.2358 10.0551L86.8835 19.6979H84.3248L81.8693 10.0345L80.8995 19.6979H77.3092L79.1044 5.66639H83.8915C84.5724 8.69523 85.1089 11.2914 85.501 13.4754L85.9137 11.2914C86.0787 10.4466 86.2644 9.62242 86.4501 8.81885Z"
        fill="#BBBCC4" />
    <path
        d="M103.638 8.81885L104.381 5.66639H109.272L111.17 19.6979H107.415L106.403 10.0551L104.072 19.6979H101.513L99.0577 10.0345L98.0879 19.6979H94.4975L96.2927 5.66639H101.08C101.761 8.69523 102.297 11.2914 102.689 13.4754L103.102 11.2914C103.267 10.4466 103.453 9.62242 103.638 8.81885Z"
        fill="#BBBCC4" />
    <path
        d="M119.424 14.1554H116.06V16.7309H119.96V19.7185H112.264V5.68699H119.94V8.67462H116.06V11.2502H119.424V14.1554Z"
        fill="#BBBCC4" />
    <path fill-rule="evenodd" clip-rule="evenodd"
        d="M131.247 9.95209C131.247 10.632 131.041 11.2914 130.649 11.9301C130.257 12.5688 129.679 13.0427 128.957 13.3724L131.99 19.6979H127.987L124.912 13.3106H124.85V19.6979H121.054V5.66639H125.469C127.244 5.66639 128.668 6.05787 129.7 6.82023C130.731 7.58259 131.247 8.63341 131.247 9.95209ZM124.83 8.36555V11.7035C126.501 11.6829 127.347 11.1883 127.347 10.2199C127.347 9.5606 127.161 9.10731 126.769 8.81885C126.377 8.53039 125.738 8.38616 124.83 8.36555Z"
        fill="#BBBCC4" />
    <path
        d="M131.412 12.507C131.412 10.4054 132.093 8.67462 133.476 7.31474C134.858 5.95485 136.612 5.2749 138.696 5.29551C139.501 5.29551 140.264 5.37793 140.945 5.56337V8.90127C140.202 8.69522 139.521 8.5922 138.882 8.5922C137.891 8.5922 137.087 8.96308 136.426 9.72544C135.787 10.4672 135.456 11.4356 135.456 12.61C135.456 13.8669 135.787 14.8559 136.447 15.5977C137.107 16.3188 137.974 16.6897 139.067 16.6897C139.604 16.6897 140.223 16.5867 140.945 16.3806V19.7185C140.161 19.9452 139.439 20.0482 138.799 20.0482C136.591 20.0482 134.817 19.3477 133.455 17.9672C132.093 16.5867 131.412 14.7529 131.412 12.507Z"
        fill="#BBBCC4" />
    <path
        d="M145.794 14.1348V16.7103H149.715V19.6979H142.018V5.66639H149.694V8.65402H145.794V11.2296H149.158V14.1348H145.794Z"
        fill="#BBBCC4" />
</svg>